<svg xmlns="http://www.w3.org/2000/svg" width="800" height="500" viewBox="0 0 800 500"><title>Varispeed Delay - Instrument</title>
<rect x="0" y="0" width="800" height="500" fill="#050806"/>
<defs><filter id="gl" x="-50%" y="-50%" width="200%" height="200%"><feGaussianBlur stdDeviation="2.5" result="b"/><feMerge><feMergeNode in="b"/><feMergeNode in="SourceGraphic"/></feMerge></filter></defs>
<line x1="0" y1="0" x2="0" y2="500" stroke="#0D1410" stroke-width="1"/>
<line x1="20" y1="0" x2="20" y2="500" stroke="#0D1410" stroke-width="1"/>
<line x1="40" y1="0" x2="40" y2="500" stroke="#0D1410" stroke-width="1"/>
<line x1="60" y1="0" x2="60" y2="500" stroke="#0D1410" stroke-width="1"/>
<line x1="80" y1="0" x2="80" y2="500" stroke="#0D1410" stroke-width="1"/>
<line x1="100" y1="0" x2="100" y2="500" stroke="#0D1410" stroke-width="1"/>
<line x1="120" y1="0" x2="120" y2="500" stroke="#0D1410" stroke-width="1"/>
<line x1="140" y1="0" x2="140" y2="500" stroke="#0D1410" stroke-width="1"/>
<line x1="160" y1="0" x2="160" y2="500" stroke="#0D1410" stroke-width="1"/>
<line x1="180" y1="0" x2="180" y2="500" stroke="#0D1410" stroke-width="1"/>
<line x1="200" y1="0" x2="200" y2="500" stroke="#0D1410" stroke-width="1"/>
<line x1="220" y1="0" x2="220" y2="500" stroke="#0D1410" stroke-width="1"/>
<line x1="240" y1="0" x2="240" y2="500" stroke="#0D1410" stroke-width="1"/>
<line x1="260" y1="0" x2="260" y2="500" stroke="#0D1410" stroke-width="1"/>
<line x1="280" y1="0" x2="280" y2="500" stroke="#0D1410" stroke-width="1"/>
<line x1="300" y1="0" x2="300" y2="500" stroke="#0D1410" stroke-width="1"/>
<line x1="320" y1="0" x2="320" y2="500" stroke="#0D1410" stroke-width="1"/>
<line x1="340" y1="0" x2="340" y2="500" stroke="#0D1410" stroke-width="1"/>
<line x1="360" y1="0" x2="360" y2="500" stroke="#0D1410" stroke-width="1"/>
<line x1="380" y1="0" x2="380" y2="500" stroke="#0D1410" stroke-width="1"/>
<line x1="400" y1="0" x2="400" y2="500" stroke="#0D1410" stroke-width="1"/>
<line x1="420" y1="0" x2="420" y2="500" stroke="#0D1410" stroke-width="1"/>
<line x1="440" y1="0" x2="440" y2="500" stroke="#0D1410" stroke-width="1"/>
<line x1="460" y1="0" x2="460" y2="500" stroke="#0D1410" stroke-width="1"/>
<line x1="480" y1="0" x2="480" y2="500" stroke="#0D1410" stroke-width="1"/>
<line x1="500" y1="0" x2="500" y2="500" stroke="#0D1410" stroke-width="1"/>
<line x1="520" y1="0" x2="520" y2="500" stroke="#0D1410" stroke-width="1"/>
<line x1="540" y1="0" x2="540" y2="500" stroke="#0D1410" stroke-width="1"/>
<line x1="560" y1="0" x2="560" y2="500" stroke="#0D1410" stroke-width="1"/>
<line x1="580" y1="0" x2="580" y2="500" stroke="#0D1410" stroke-width="1"/>
<line x1="600" y1="0" x2="600" y2="500" stroke="#0D1410" stroke-width="1"/>
<line x1="620" y1="0" x2="620" y2="500" stroke="#0D1410" stroke-width="1"/>
<line x1="640" y1="0" x2="640" y2="500" stroke="#0D1410" stroke-width="1"/>
<line x1="660" y1="0" x2="660" y2="500" stroke="#0D1410" stroke-width="1"/>
<line x1="680" y1="0" x2="680" y2="500" stroke="#0D1410" stroke-width="1"/>
<line x1="700" y1="0" x2="700" y2="500" stroke="#0D1410" stroke-width="1"/>
<line x1="720" y1="0" x2="720" y2="500" stroke="#0D1410" stroke-width="1"/>
<line x1="740" y1="0" x2="740" y2="500" stroke="#0D1410" stroke-width="1"/>
<line x1="760" y1="0" x2="760" y2="500" stroke="#0D1410" stroke-width="1"/>
<line x1="780" y1="0" x2="780" y2="500" stroke="#0D1410" stroke-width="1"/>
<line x1="800" y1="0" x2="800" y2="500" stroke="#0D1410" stroke-width="1"/>
<line x1="0" y1="0" x2="800" y2="0" stroke="#0D1410" stroke-width="1"/>
<line x1="0" y1="20" x2="800" y2="20" stroke="#0D1410" stroke-width="1"/>
<line x1="0" y1="40" x2="800" y2="40" stroke="#0D1410" stroke-width="1"/>
<line x1="0" y1="60" x2="800" y2="60" stroke="#0D1410" stroke-width="1"/>
<line x1="0" y1="80" x2="800" y2="80" stroke="#0D1410" stroke-width="1"/>
<line x1="0" y1="100" x2="800" y2="100" stroke="#0D1410" stroke-width="1"/>
<line x1="0" y1="120" x2="800" y2="120" stroke="#0D1410" stroke-width="1"/>
<line x1="0" y1="140" x2="800" y2="140" stroke="#0D1410" stroke-width="1"/>
<line x1="0" y1="160" x2="800" y2="160" stroke="#0D1410" stroke-width="1"/>
<line x1="0" y1="180" x2="800" y2="180" stroke="#0D1410" stroke-width="1"/>
<line x1="0" y1="200" x2="800" y2="200" stroke="#0D1410" stroke-width="1"/>
<line x1="0" y1="220" x2="800" y2="220" stroke="#0D1410" stroke-width="1"/>
<line x1="0" y1="240" x2="800" y2="240" stroke="#0D1410" stroke-width="1"/>
<line x1="0" y1="260" x2="800" y2="260" stroke="#0D1410" stroke-width="1"/>
<line x1="0" y1="280" x2="800" y2="280" stroke="#0D1410" stroke-width="1"/>
<line x1="0" y1="300" x2="800" y2="300" stroke="#0D1410" stroke-width="1"/>
<line x1="0" y1="320" x2="800" y2="320" stroke="#0D1410" stroke-width="1"/>
<line x1="0" y1="340" x2="800" y2="340" stroke="#0D1410" stroke-width="1"/>
<line x1="0" y1="360" x2="800" y2="360" stroke="#0D1410" stroke-width="1"/>
<line x1="0" y1="380" x2="800" y2="380" stroke="#0D1410" stroke-width="1"/>
<line x1="0" y1="400" x2="800" y2="400" stroke="#0D1410" stroke-width="1"/>
<line x1="0" y1="420" x2="800" y2="420" stroke="#0D1410" stroke-width="1"/>
<line x1="0" y1="440" x2="800" y2="440" stroke="#0D1410" stroke-width="1"/>
<line x1="0" y1="460" x2="800" y2="460" stroke="#0D1410" stroke-width="1"/>
<line x1="0" y1="480" x2="800" y2="480" stroke="#0D1410" stroke-width="1"/>
<line x1="0" y1="500" x2="800" y2="500" stroke="#0D1410" stroke-width="1"/>
<rect x="10" y="12" width="780" height="128" fill="#070C09" stroke="#15301F" stroke-width="1"/>
<line x1="10" y1="12" x2="17" y2="12" stroke="#5AE39B" stroke-width="1" opacity="0.55"/>
<line x1="10" y1="12" x2="10" y2="19" stroke="#5AE39B" stroke-width="1" opacity="0.55"/>
<line x1="790" y1="12" x2="783" y2="12" stroke="#5AE39B" stroke-width="1" opacity="0.55"/>
<line x1="790" y1="12" x2="790" y2="19" stroke="#5AE39B" stroke-width="1" opacity="0.55"/>
<line x1="10" y1="140" x2="17" y2="140" stroke="#5AE39B" stroke-width="1" opacity="0.55"/>
<line x1="10" y1="140" x2="10" y2="133" stroke="#5AE39B" stroke-width="1" opacity="0.55"/>
<line x1="790" y1="140" x2="783" y2="140" stroke="#5AE39B" stroke-width="1" opacity="0.55"/>
<line x1="790" y1="140" x2="790" y2="133" stroke="#5AE39B" stroke-width="1" opacity="0.55"/>
<rect x="20" y="7" width="112.4" height="10" fill="#050806"/>
<text x="25" y="15" font-family="Menlo, 'SF Mono', 'Courier New', monospace" font-size="8" font-weight="400" fill="#5AE39B" letter-spacing="2">REPETITION SCOPE</text>
<line x1="20" y1="76" x2="780" y2="76" stroke="#15301F" stroke-width="1"/>
<line x1="26.0" y1="22.0" x2="26.0" y2="130.0" stroke="#5AE39B" stroke-width="1.6" opacity="0.95"/>
<line x1="27.4" y1="46.3" x2="27.4" y2="105.7" stroke="#5AE39B" stroke-width="1.2" opacity="0.45"/>
<line x1="28.6" y1="59.8" x2="28.6" y2="92.2" stroke="#5AE39B" stroke-width="1.2" opacity="0.45"/>
<line x1="130.0" y1="35.0" x2="130.0" y2="117.0" stroke="#5AE39B" stroke-width="1.6" opacity="0.95"/>
<line x1="131.4" y1="53.4" x2="131.4" y2="98.6" stroke="#5AE39B" stroke-width="1.2" opacity="0.45"/>
<line x1="132.6" y1="63.7" x2="132.6" y2="88.3" stroke="#5AE39B" stroke-width="1.2" opacity="0.45"/>
<line x1="220.5" y1="44.8" x2="220.5" y2="107.2" stroke="#5AE39B" stroke-width="1.6" opacity="0.95"/>
<line x1="221.9" y1="58.8" x2="221.9" y2="93.2" stroke="#5AE39B" stroke-width="1.2" opacity="0.45"/>
<line x1="223.1" y1="66.6" x2="223.1" y2="85.4" stroke="#5AE39B" stroke-width="1.2" opacity="0.45"/>
<line x1="299.2" y1="52.3" x2="299.2" y2="99.7" stroke="#5AE39B" stroke-width="1.6" opacity="0.95"/>
<line x1="300.6" y1="63.0" x2="300.6" y2="89.0" stroke="#5AE39B" stroke-width="1.2" opacity="0.45"/>
<line x1="301.8" y1="68.9" x2="301.8" y2="83.1" stroke="#5AE39B" stroke-width="1.2" opacity="0.45"/>
<line x1="367.7" y1="58.0" x2="367.7" y2="94.0" stroke="#5AE39B" stroke-width="1.6" opacity="0.95"/>
<line x1="369.1" y1="66.1" x2="369.1" y2="85.9" stroke="#5AE39B" stroke-width="1.2" opacity="0.45"/>
<line x1="370.3" y1="70.6" x2="370.3" y2="81.4" stroke="#5AE39B" stroke-width="1.2" opacity="0.45"/>
<line x1="427.3" y1="62.3" x2="427.3" y2="89.7" stroke="#5AE39B" stroke-width="1.6" opacity="0.95"/>
<line x1="428.7" y1="68.5" x2="428.7" y2="83.5" stroke="#5AE39B" stroke-width="1.2" opacity="0.45"/>
<line x1="429.8" y1="71.9" x2="429.8" y2="80.1" stroke="#5AE39B" stroke-width="1.2" opacity="0.45"/>
<line x1="479.1" y1="65.6" x2="479.1" y2="86.4" stroke="#5AE39B" stroke-width="1.6" opacity="0.95"/>
<line x1="480.5" y1="70.3" x2="480.5" y2="81.7" stroke="#5AE39B" stroke-width="1.2" opacity="0.45"/>
<line x1="481.7" y1="72.9" x2="481.7" y2="79.1" stroke="#5AE39B" stroke-width="1.2" opacity="0.45"/>
<line x1="524.2" y1="68.1" x2="524.2" y2="83.9" stroke="#5AE39B" stroke-width="1.6" opacity="0.95"/>
<line x1="525.6" y1="71.7" x2="525.6" y2="80.3" stroke="#5AE39B" stroke-width="1.2" opacity="0.45"/>
<line x1="526.8" y1="73.6" x2="526.8" y2="78.4" stroke="#5AE39B" stroke-width="1.2" opacity="0.45"/>
<line x1="563.4" y1="70.0" x2="563.4" y2="82.0" stroke="#5AE39B" stroke-width="1.6" opacity="0.95"/>
<line x1="564.8" y1="72.7" x2="564.8" y2="79.3" stroke="#5AE39B" stroke-width="1.2" opacity="0.45"/>
<line x1="566.0" y1="74.2" x2="566.0" y2="77.8" stroke="#5AE39B" stroke-width="1.2" opacity="0.45"/>
<line x1="597.6" y1="71.4" x2="597.6" y2="80.6" stroke="#5AE39B" stroke-width="1.6" opacity="0.95"/>
<line x1="599.0" y1="73.5" x2="599.0" y2="78.5" stroke="#5AE39B" stroke-width="1.2" opacity="0.45"/>
<line x1="600.1" y1="74.6" x2="600.1" y2="77.4" stroke="#5AE39B" stroke-width="1.2" opacity="0.45"/>
<line x1="627.3" y1="72.5" x2="627.3" y2="79.5" stroke="#5AE39B" stroke-width="1.6" opacity="0.95"/>
<line x1="628.7" y1="74.1" x2="628.7" y2="77.9" stroke="#5AE39B" stroke-width="1.2" opacity="0.45"/>
<line x1="629.8" y1="75.0" x2="629.8" y2="77.0" stroke="#5AE39B" stroke-width="1.2" opacity="0.45"/>
<line x1="653.1" y1="73.4" x2="653.1" y2="78.6" stroke="#5AE39B" stroke-width="1.6" opacity="0.95"/>
<line x1="654.5" y1="74.5" x2="654.5" y2="77.5" stroke="#5AE39B" stroke-width="1.2" opacity="0.45"/>
<line x1="655.7" y1="75.2" x2="655.7" y2="76.8" stroke="#5AE39B" stroke-width="1.2" opacity="0.45"/>
<line x1="675.6" y1="74.0" x2="675.6" y2="78.0" stroke="#5AE39B" stroke-width="1.6" opacity="0.95"/>
<line x1="677.0" y1="74.9" x2="677.0" y2="77.1" stroke="#5AE39B" stroke-width="1.2" opacity="0.45"/>
<line x1="678.2" y1="75.4" x2="678.2" y2="76.6" stroke="#5AE39B" stroke-width="1.2" opacity="0.45"/>
<line x1="695.1" y1="74.5" x2="695.1" y2="77.5" stroke="#5AE39B" stroke-width="1.6" opacity="0.95"/>
<line x1="696.5" y1="75.2" x2="696.5" y2="76.8" stroke="#5AE39B" stroke-width="1.2" opacity="0.45"/>
<line x1="697.7" y1="75.5" x2="697.7" y2="76.5" stroke="#5AE39B" stroke-width="1.2" opacity="0.45"/>
<line x1="712.1" y1="74.8" x2="712.1" y2="77.2" stroke="#5AE39B" stroke-width="1.6" opacity="0.95"/>
<line x1="713.5" y1="75.4" x2="713.5" y2="76.6" stroke="#5AE39B" stroke-width="1.2" opacity="0.45"/>
<line x1="714.7" y1="75.7" x2="714.7" y2="76.3" stroke="#5AE39B" stroke-width="1.2" opacity="0.45"/>
<polyline points="26.0,22.0 130.0,35.0 220.5,44.8 299.2,52.3 367.7,58.0 427.3,62.3 479.1,65.6 524.2,68.1 563.4,70.0 597.6,71.4 627.3,72.5 653.1,73.4 675.6,74.0 695.1,74.5 712.1,74.8" fill="none" stroke="#5AE39B" stroke-width="1" opacity="0.4" stroke-dasharray="3 4"/>
<polyline points="26.0,130.0 130.0,117.0 220.5,107.2 299.2,99.7 367.7,94.0 427.3,89.7 479.1,86.4 524.2,83.9 563.4,82.0 597.6,80.6 627.3,79.5 653.1,78.6 675.6,78.0 695.1,77.5 712.1,77.2" fill="none" stroke="#5AE39B" stroke-width="1" opacity="0.4" stroke-dasharray="3 4"/>
<g filter="url(#gl)"><line x1="26" y1="24" x2="26" y2="128" stroke="#5AE39B" stroke-width="1.4" opacity="0.9"/></g>
<text x="700" y="30" font-family="Menlo, 'SF Mono', 'Courier New', monospace" font-size="8.5" font-weight="400" fill="#4C6A5C" text-anchor="end">T 500.0 ms</text>
<text x="700" y="44" font-family="Menlo, 'SF Mono', 'Courier New', monospace" font-size="8.5" font-weight="400" fill="#4C6A5C" text-anchor="end">R 1.0000 x</text>
<text x="700" y="58" font-family="Menlo, 'SF Mono', 'Courier New', monospace" font-size="8.5" font-weight="400" fill="#5AE39B" text-anchor="end">FB 0.62</text>
<text x="776" y="30" font-family="Menlo, 'SF Mono', 'Courier New', monospace" font-size="8.5" font-weight="400" fill="#4C6A5C" text-anchor="end" opacity="0.6">GEN 12</text>
<text x="776" y="44" font-family="Menlo, 'SF Mono', 'Courier New', monospace" font-size="8.5" font-weight="400" fill="#4C6A5C" text-anchor="end" opacity="0.6">VOX 07</text>
<rect x="10" y="156" width="264" height="148" fill="#070C09" stroke="#15301F" stroke-width="1"/>
<line x1="10" y1="156" x2="17" y2="156" stroke="#5AE39B" stroke-width="1" opacity="0.55"/>
<line x1="10" y1="156" x2="10" y2="163" stroke="#5AE39B" stroke-width="1" opacity="0.55"/>
<line x1="274" y1="156" x2="267" y2="156" stroke="#5AE39B" stroke-width="1" opacity="0.55"/>
<line x1="274" y1="156" x2="274" y2="163" stroke="#5AE39B" stroke-width="1" opacity="0.55"/>
<line x1="10" y1="304" x2="17" y2="304" stroke="#5AE39B" stroke-width="1" opacity="0.55"/>
<line x1="10" y1="304" x2="10" y2="297" stroke="#5AE39B" stroke-width="1" opacity="0.55"/>
<line x1="274" y1="304" x2="267" y2="304" stroke="#5AE39B" stroke-width="1" opacity="0.55"/>
<line x1="274" y1="304" x2="274" y2="297" stroke="#5AE39B" stroke-width="1" opacity="0.55"/>
<rect x="20" y="151" width="35.6" height="10" fill="#050806"/>
<text x="25" y="159" font-family="Menlo, 'SF Mono', 'Courier New', monospace" font-size="8" font-weight="400" fill="#5AE39B" letter-spacing="2">TIME</text>
<line x1="39.6" y1="226.4" x2="36.8" y2="229.2" stroke="#5AE39B" stroke-width="1.6"/>
<line x1="37.0" y1="223.3" x2="33.7" y2="225.6" stroke="#5AE39B" stroke-width="1.6"/>
<line x1="34.8" y1="219.8" x2="31.3" y2="221.6" stroke="#5AE39B" stroke-width="1.6"/>
<line x1="33.3" y1="216.0" x2="29.5" y2="217.3" stroke="#5AE39B" stroke-width="1.6"/>
<line x1="32.3" y1="212.1" x2="28.4" y2="212.7" stroke="#5AE39B" stroke-width="1.6"/>
<line x1="32.0" y1="208.0" x2="28.0" y2="208.0" stroke="#5AE39B" stroke-width="1.6"/>
<line x1="32.3" y1="203.9" x2="28.4" y2="203.3" stroke="#5AE39B" stroke-width="1.6"/>
<line x1="33.3" y1="200.0" x2="29.5" y2="198.7" stroke="#5AE39B" stroke-width="1.6"/>
<line x1="34.8" y1="196.2" x2="31.3" y2="194.4" stroke="#5AE39B" stroke-width="1.6"/>
<line x1="37.0" y1="192.7" x2="33.7" y2="190.4" stroke="#5AE39B" stroke-width="1.6"/>
<line x1="39.6" y1="189.6" x2="36.8" y2="186.8" stroke="#5AE39B" stroke-width="1.6"/>
<line x1="42.7" y1="187.0" x2="40.4" y2="183.7" stroke="#5AE39B" stroke-width="1.6"/>
<line x1="46.2" y1="184.8" x2="44.4" y2="181.3" stroke="#5AE39B" stroke-width="1.6"/>
<line x1="50.0" y1="183.3" x2="48.7" y2="179.5" stroke="#5AE39B" stroke-width="1.6"/>
<line x1="53.9" y1="182.3" x2="53.3" y2="178.4" stroke="#5AE39B" stroke-width="1.6"/>
<line x1="58.0" y1="182.0" x2="58.0" y2="178.0" stroke="#5AE39B" stroke-width="1.6"/>
<line x1="62.1" y1="182.3" x2="62.7" y2="178.4" stroke="#5AE39B" stroke-width="1.6"/>
<line x1="66.0" y1="183.3" x2="67.3" y2="179.5" stroke="#5AE39B" stroke-width="1.6"/>
<line x1="69.8" y1="184.8" x2="71.6" y2="181.3" stroke="#5AE39B" stroke-width="1.6"/>
<line x1="73.3" y1="187.0" x2="75.6" y2="183.7" stroke="#15301F" stroke-width="1.6"/>
<line x1="76.4" y1="189.6" x2="79.2" y2="186.8" stroke="#15301F" stroke-width="1.6"/>
<line x1="79.0" y1="192.7" x2="82.3" y2="190.4" stroke="#15301F" stroke-width="1.6"/>
<line x1="81.2" y1="196.2" x2="84.7" y2="194.4" stroke="#15301F" stroke-width="1.6"/>
<line x1="82.7" y1="200.0" x2="86.5" y2="198.7" stroke="#15301F" stroke-width="1.6"/>
<line x1="83.7" y1="203.9" x2="87.6" y2="203.3" stroke="#15301F" stroke-width="1.6"/>
<line x1="84.0" y1="208.0" x2="88.0" y2="208.0" stroke="#15301F" stroke-width="1.6"/>
<line x1="83.7" y1="212.1" x2="87.6" y2="212.7" stroke="#15301F" stroke-width="1.6"/>
<line x1="82.7" y1="216.0" x2="86.5" y2="217.3" stroke="#15301F" stroke-width="1.6"/>
<line x1="81.2" y1="219.8" x2="84.7" y2="221.6" stroke="#15301F" stroke-width="1.6"/>
<line x1="79.0" y1="223.3" x2="82.3" y2="225.6" stroke="#15301F" stroke-width="1.6"/>
<line x1="76.4" y1="226.4" x2="79.2" y2="229.2" stroke="#15301F" stroke-width="1.6"/>
<line x1="58" y1="208" x2="70.3" y2="188.6" stroke="#CBE3D6" stroke-width="1.2" stroke-linecap="round"/>
<circle cx="58" cy="208" r="1.8" fill="#5AE39B"/>
<text x="102" y="202" font-family="Menlo, 'SF Mono', 'Courier New', monospace" font-size="17" font-weight="400" fill="#CBE3D6" letter-spacing="-0.5">500.0 ms</text>
<text x="102" y="218" font-family="Menlo, 'SF Mono', 'Courier New', monospace" font-size="7" font-weight="400" fill="#4C6A5C" letter-spacing="1.2" opacity="0.6">TIME VALUE</text>
<rect x="24" y="241" width="32.32" height="14" fill="#5AE39B"/>
<text x="29" y="250" font-family="Menlo, 'SF Mono', 'Courier New', monospace" font-size="9" font-weight="700" fill="#04120A" letter-spacing="0.5">FREE</text>
<rect x="61.32" y="241" width="32.32" height="14" fill="none" stroke="#15301F" stroke-width="1"/>
<text x="66.32" y="250" font-family="Menlo, 'SF Mono', 'Courier New', monospace" font-size="9" font-weight="400" fill="#4C6A5C" letter-spacing="0.5">SYNC</text>
<rect x="24" y="261" width="32.32" height="14" fill="#5AE39B"/>
<text x="29" y="270" font-family="Menlo, 'SF Mono', 'Courier New', monospace" font-size="9" font-weight="700" fill="#04120A" letter-spacing="0.5">GRID</text>
<rect x="61.32" y="261" width="32.32" height="14" fill="none" stroke="#15301F" stroke-width="1"/>
<text x="66.32" y="270" font-family="Menlo, 'SF Mono', 'Courier New', monospace" font-size="9" font-weight="400" fill="#4C6A5C" letter-spacing="0.5">TAPE</text>
<rect x="24" y="281" width="43.48" height="14" fill="none" stroke="#15301F" stroke-width="1"/>
<text x="29" y="290" font-family="Menlo, 'SF Mono', 'Courier New', monospace" font-size="9" font-weight="400" fill="#4C6A5C" letter-spacing="0.5">REGRID</text>
<rect x="72.47999999999999" y="281" width="32.32" height="14" fill="#5AE39B"/>
<text x="77.47999999999999" y="290" font-family="Menlo, 'SF Mono', 'Courier New', monospace" font-size="9" font-weight="700" fill="#04120A" letter-spacing="0.5">BEND</text>
<rect x="140" y="241" width="43.48" height="14" fill="none" stroke="#15301F" stroke-width="1"/>
<text x="145" y="250" font-family="Menlo, 'SF Mono', 'Courier New', monospace" font-size="9" font-weight="400" fill="#4C6A5C" letter-spacing="0.5">1/4 &lt;></text>
<rect x="268" y="156" width="264" height="148" fill="#070C09" stroke="#15301F" stroke-width="1"/>
<line x1="268" y1="156" x2="275" y2="156" stroke="#5AE39B" stroke-width="1" opacity="0.55"/>
<line x1="268" y1="156" x2="268" y2="163" stroke="#5AE39B" stroke-width="1" opacity="0.55"/>
<line x1="532" y1="156" x2="525" y2="156" stroke="#5AE39B" stroke-width="1" opacity="0.55"/>
<line x1="532" y1="156" x2="532" y2="163" stroke="#5AE39B" stroke-width="1" opacity="0.55"/>
<line x1="268" y1="304" x2="275" y2="304" stroke="#5AE39B" stroke-width="1" opacity="0.55"/>
<line x1="268" y1="304" x2="268" y2="297" stroke="#5AE39B" stroke-width="1" opacity="0.55"/>
<line x1="532" y1="304" x2="525" y2="304" stroke="#5AE39B" stroke-width="1" opacity="0.55"/>
<line x1="532" y1="304" x2="532" y2="297" stroke="#5AE39B" stroke-width="1" opacity="0.55"/>
<rect x="278" y="151" width="42.0" height="10" fill="#050806"/>
<text x="283" y="159" font-family="Menlo, 'SF Mono', 'Courier New', monospace" font-size="8" font-weight="400" fill="#5AE39B" letter-spacing="2">SPEED</text>
<line x1="297.6" y1="226.4" x2="294.8" y2="229.2" stroke="#5AE39B" stroke-width="1.6"/>
<line x1="295.0" y1="223.3" x2="291.7" y2="225.6" stroke="#5AE39B" stroke-width="1.6"/>
<line x1="292.8" y1="219.8" x2="289.3" y2="221.6" stroke="#5AE39B" stroke-width="1.6"/>
<line x1="291.3" y1="216.0" x2="287.5" y2="217.3" stroke="#5AE39B" stroke-width="1.6"/>
<line x1="290.3" y1="212.1" x2="286.4" y2="212.7" stroke="#5AE39B" stroke-width="1.6"/>
<line x1="290.0" y1="208.0" x2="286.0" y2="208.0" stroke="#5AE39B" stroke-width="1.6"/>
<line x1="290.3" y1="203.9" x2="286.4" y2="203.3" stroke="#5AE39B" stroke-width="1.6"/>
<line x1="291.3" y1="200.0" x2="287.5" y2="198.7" stroke="#5AE39B" stroke-width="1.6"/>
<line x1="292.8" y1="196.2" x2="289.3" y2="194.4" stroke="#5AE39B" stroke-width="1.6"/>
<line x1="295.0" y1="192.7" x2="291.7" y2="190.4" stroke="#5AE39B" stroke-width="1.6"/>
<line x1="297.6" y1="189.6" x2="294.8" y2="186.8" stroke="#5AE39B" stroke-width="1.6"/>
<line x1="300.7" y1="187.0" x2="298.4" y2="183.7" stroke="#5AE39B" stroke-width="1.6"/>
<line x1="304.2" y1="184.8" x2="302.4" y2="181.3" stroke="#5AE39B" stroke-width="1.6"/>
<line x1="308.0" y1="183.3" x2="306.7" y2="179.5" stroke="#5AE39B" stroke-width="1.6"/>
<line x1="311.9" y1="182.3" x2="311.3" y2="178.4" stroke="#5AE39B" stroke-width="1.6"/>
<line x1="316.0" y1="182.0" x2="316.0" y2="178.0" stroke="#5AE39B" stroke-width="1.6"/>
<line x1="320.1" y1="182.3" x2="320.7" y2="178.4" stroke="#15301F" stroke-width="1.6"/>
<line x1="324.0" y1="183.3" x2="325.3" y2="179.5" stroke="#15301F" stroke-width="1.6"/>
<line x1="327.8" y1="184.8" x2="329.6" y2="181.3" stroke="#15301F" stroke-width="1.6"/>
<line x1="331.3" y1="187.0" x2="333.6" y2="183.7" stroke="#15301F" stroke-width="1.6"/>
<line x1="334.4" y1="189.6" x2="337.2" y2="186.8" stroke="#15301F" stroke-width="1.6"/>
<line x1="337.0" y1="192.7" x2="340.3" y2="190.4" stroke="#15301F" stroke-width="1.6"/>
<line x1="339.2" y1="196.2" x2="342.7" y2="194.4" stroke="#15301F" stroke-width="1.6"/>
<line x1="340.7" y1="200.0" x2="344.5" y2="198.7" stroke="#15301F" stroke-width="1.6"/>
<line x1="341.7" y1="203.9" x2="345.6" y2="203.3" stroke="#15301F" stroke-width="1.6"/>
<line x1="342.0" y1="208.0" x2="346.0" y2="208.0" stroke="#15301F" stroke-width="1.6"/>
<line x1="341.7" y1="212.1" x2="345.6" y2="212.7" stroke="#15301F" stroke-width="1.6"/>
<line x1="340.7" y1="216.0" x2="344.5" y2="217.3" stroke="#15301F" stroke-width="1.6"/>
<line x1="339.2" y1="219.8" x2="342.7" y2="221.6" stroke="#15301F" stroke-width="1.6"/>
<line x1="337.0" y1="223.3" x2="340.3" y2="225.6" stroke="#15301F" stroke-width="1.6"/>
<line x1="334.4" y1="226.4" x2="337.2" y2="229.2" stroke="#15301F" stroke-width="1.6"/>
<line x1="316" y1="208" x2="316.0" y2="185.0" stroke="#CBE3D6" stroke-width="1.2" stroke-linecap="round"/>
<circle cx="316" cy="208" r="1.8" fill="#5AE39B"/>
<text x="360" y="202" font-family="Menlo, 'SF Mono', 'Courier New', monospace" font-size="17" font-weight="400" fill="#CBE3D6" letter-spacing="-0.5">1.0000 x</text>
<text x="360" y="218" font-family="Menlo, 'SF Mono', 'Courier New', monospace" font-size="7" font-weight="400" fill="#4C6A5C" letter-spacing="1.2" opacity="0.6">SPEED VALUE</text>
<rect x="282" y="245" width="26.74" height="14" fill="none" stroke="#15301F" stroke-width="1"/>
<text x="287" y="254" font-family="Menlo, 'SF Mono', 'Courier New', monospace" font-size="9" font-weight="400" fill="#4C6A5C" letter-spacing="0.5">1/4</text>
<rect x="331" y="245" width="26.74" height="14" fill="none" stroke="#15301F" stroke-width="1"/>
<text x="336" y="254" font-family="Menlo, 'SF Mono', 'Courier New', monospace" font-size="9" font-weight="400" fill="#4C6A5C" letter-spacing="0.5">1/2</text>
<rect x="380" y="245" width="26.74" height="14" fill="none" stroke="#15301F" stroke-width="1"/>
<text x="385" y="254" font-family="Menlo, 'SF Mono', 'Courier New', monospace" font-size="9" font-weight="400" fill="#4C6A5C" letter-spacing="0.5">5dn</text>
<rect x="429" y="245" width="26.74" height="14" fill="none" stroke="#15301F" stroke-width="1"/>
<text x="434" y="254" font-family="Menlo, 'SF Mono', 'Courier New', monospace" font-size="9" font-weight="400" fill="#4C6A5C" letter-spacing="0.5">4dn</text>
<rect x="478" y="245" width="15.58" height="14" fill="#5AE39B"/>
<text x="483" y="254" font-family="Menlo, 'SF Mono', 'Courier New', monospace" font-size="9" font-weight="700" fill="#04120A" letter-spacing="0.5">1</text>
<rect x="282" y="265" width="26.74" height="14" fill="none" stroke="#15301F" stroke-width="1"/>
<text x="287" y="274" font-family="Menlo, 'SF Mono', 'Courier New', monospace" font-size="9" font-weight="400" fill="#4C6A5C" letter-spacing="0.5">4up</text>
<rect x="331" y="265" width="26.74" height="14" fill="none" stroke="#15301F" stroke-width="1"/>
<text x="336" y="274" font-family="Menlo, 'SF Mono', 'Courier New', monospace" font-size="9" font-weight="400" fill="#4C6A5C" letter-spacing="0.5">5up</text>
<rect x="380" y="265" width="15.58" height="14" fill="none" stroke="#15301F" stroke-width="1"/>
<text x="385" y="274" font-family="Menlo, 'SF Mono', 'Courier New', monospace" font-size="9" font-weight="400" fill="#4C6A5C" letter-spacing="0.5">2</text>
<rect x="429" y="265" width="15.58" height="14" fill="none" stroke="#15301F" stroke-width="1"/>
<text x="434" y="274" font-family="Menlo, 'SF Mono', 'Courier New', monospace" font-size="9" font-weight="400" fill="#4C6A5C" letter-spacing="0.5">4</text>
<rect x="526" y="156" width="264" height="148" fill="#070C09" stroke="#15301F" stroke-width="1"/>
<line x1="526" y1="156" x2="533" y2="156" stroke="#5AE39B" stroke-width="1" opacity="0.55"/>
<line x1="526" y1="156" x2="526" y2="163" stroke="#5AE39B" stroke-width="1" opacity="0.55"/>
<line x1="790" y1="156" x2="783" y2="156" stroke="#5AE39B" stroke-width="1" opacity="0.55"/>
<line x1="790" y1="156" x2="790" y2="163" stroke="#5AE39B" stroke-width="1" opacity="0.55"/>
<line x1="526" y1="304" x2="533" y2="304" stroke="#5AE39B" stroke-width="1" opacity="0.55"/>
<line x1="526" y1="304" x2="526" y2="297" stroke="#5AE39B" stroke-width="1" opacity="0.55"/>
<line x1="790" y1="304" x2="783" y2="304" stroke="#5AE39B" stroke-width="1" opacity="0.55"/>
<line x1="790" y1="304" x2="790" y2="297" stroke="#5AE39B" stroke-width="1" opacity="0.55"/>
<rect x="536" y="151" width="61.2" height="10" fill="#050806"/>
<text x="541" y="159" font-family="Menlo, 'SF Mono', 'Courier New', monospace" font-size="8" font-weight="400" fill="#5AE39B" letter-spacing="2">FEEDBACK</text>
<line x1="555.6" y1="226.4" x2="552.8" y2="229.2" stroke="#5AE39B" stroke-width="1.6"/>
<line x1="553.0" y1="223.3" x2="549.7" y2="225.6" stroke="#5AE39B" stroke-width="1.6"/>
<line x1="550.8" y1="219.8" x2="547.3" y2="221.6" stroke="#5AE39B" stroke-width="1.6"/>
<line x1="549.3" y1="216.0" x2="545.5" y2="217.3" stroke="#5AE39B" stroke-width="1.6"/>
<line x1="548.3" y1="212.1" x2="544.4" y2="212.7" stroke="#5AE39B" stroke-width="1.6"/>
<line x1="548.0" y1="208.0" x2="544.0" y2="208.0" stroke="#5AE39B" stroke-width="1.6"/>
<line x1="548.3" y1="203.9" x2="544.4" y2="203.3" stroke="#5AE39B" stroke-width="1.6"/>
<line x1="549.3" y1="200.0" x2="545.5" y2="198.7" stroke="#5AE39B" stroke-width="1.6"/>
<line x1="550.8" y1="196.2" x2="547.3" y2="194.4" stroke="#5AE39B" stroke-width="1.6"/>
<line x1="553.0" y1="192.7" x2="549.7" y2="190.4" stroke="#5AE39B" stroke-width="1.6"/>
<line x1="555.6" y1="189.6" x2="552.8" y2="186.8" stroke="#5AE39B" stroke-width="1.6"/>
<line x1="558.7" y1="187.0" x2="556.4" y2="183.7" stroke="#5AE39B" stroke-width="1.6"/>
<line x1="562.2" y1="184.8" x2="560.4" y2="181.3" stroke="#5AE39B" stroke-width="1.6"/>
<line x1="566.0" y1="183.3" x2="564.7" y2="179.5" stroke="#15301F" stroke-width="1.6"/>
<line x1="569.9" y1="182.3" x2="569.3" y2="178.4" stroke="#15301F" stroke-width="1.6"/>
<line x1="574.0" y1="182.0" x2="574.0" y2="178.0" stroke="#15301F" stroke-width="1.6"/>
<line x1="578.1" y1="182.3" x2="578.7" y2="178.4" stroke="#15301F" stroke-width="1.6"/>
<line x1="582.0" y1="183.3" x2="583.3" y2="179.5" stroke="#15301F" stroke-width="1.6"/>
<line x1="585.8" y1="184.8" x2="587.6" y2="181.3" stroke="#15301F" stroke-width="1.6"/>
<line x1="589.3" y1="187.0" x2="591.6" y2="183.7" stroke="#15301F" stroke-width="1.6"/>
<line x1="592.4" y1="189.6" x2="595.2" y2="186.8" stroke="#15301F" stroke-width="1.6"/>
<line x1="595.0" y1="192.7" x2="598.3" y2="190.4" stroke="#15301F" stroke-width="1.6"/>
<line x1="597.2" y1="196.2" x2="600.7" y2="194.4" stroke="#15301F" stroke-width="1.6"/>
<line x1="598.7" y1="200.0" x2="602.5" y2="198.7" stroke="#15301F" stroke-width="1.6"/>
<line x1="599.7" y1="203.9" x2="603.6" y2="203.3" stroke="#15301F" stroke-width="1.6"/>
<line x1="600.0" y1="208.0" x2="604.0" y2="208.0" stroke="#15301F" stroke-width="1.6"/>
<line x1="599.7" y1="212.1" x2="603.6" y2="212.7" stroke="#15301F" stroke-width="1.6"/>
<line x1="598.7" y1="216.0" x2="602.5" y2="217.3" stroke="#15301F" stroke-width="1.6"/>
<line x1="597.2" y1="219.8" x2="600.7" y2="221.6" stroke="#15301F" stroke-width="1.6"/>
<line x1="595.0" y1="223.3" x2="598.3" y2="225.6" stroke="#15301F" stroke-width="1.6"/>
<line x1="592.4" y1="226.4" x2="595.2" y2="229.2" stroke="#15301F" stroke-width="1.6"/>
<line x1="574" y1="208" x2="565.5" y2="186.6" stroke="#CBE3D6" stroke-width="1.2" stroke-linecap="round"/>
<circle cx="574" cy="208" r="1.8" fill="#5AE39B"/>
<text x="618" y="202" font-family="Menlo, 'SF Mono', 'Courier New', monospace" font-size="17" font-weight="400" fill="#CBE3D6" letter-spacing="-0.5">0.6200</text>
<text x="618" y="218" font-family="Menlo, 'SF Mono', 'Courier New', monospace" font-size="7" font-weight="400" fill="#4C6A5C" letter-spacing="1.2" opacity="0.6">FEEDBACK VALUE</text>
<rect x="540" y="241" width="26.74" height="14" fill="#5AE39B"/>
<text x="545" y="250" font-family="Menlo, 'SF Mono', 'Courier New', monospace" font-size="9" font-weight="700" fill="#04120A" letter-spacing="0.5">RAW</text>
<rect x="571.74" y="241" width="43.48" height="14" fill="none" stroke="#15301F" stroke-width="1"/>
<text x="576.74" y="250" font-family="Menlo, 'SF Mono', 'Courier New', monospace" font-size="9" font-weight="400" fill="#4C6A5C" letter-spacing="0.5">STABLE</text>
<rect x="10" y="320" width="500" height="118" fill="#070C09" stroke="#15301F" stroke-width="1"/>
<line x1="10" y1="320" x2="17" y2="320" stroke="#5AE39B" stroke-width="1" opacity="0.55"/>
<line x1="10" y1="320" x2="10" y2="327" stroke="#5AE39B" stroke-width="1" opacity="0.55"/>
<line x1="510" y1="320" x2="503" y2="320" stroke="#5AE39B" stroke-width="1" opacity="0.55"/>
<line x1="510" y1="320" x2="510" y2="327" stroke="#5AE39B" stroke-width="1" opacity="0.55"/>
<line x1="10" y1="438" x2="17" y2="438" stroke="#5AE39B" stroke-width="1" opacity="0.55"/>
<line x1="10" y1="438" x2="10" y2="431" stroke="#5AE39B" stroke-width="1" opacity="0.55"/>
<line x1="510" y1="438" x2="503" y2="438" stroke="#5AE39B" stroke-width="1" opacity="0.55"/>
<line x1="510" y1="438" x2="510" y2="431" stroke="#5AE39B" stroke-width="1" opacity="0.55"/>
<rect x="20" y="315" width="74.0" height="10" fill="#050806"/>
<text x="25" y="323" font-family="Menlo, 'SF Mono', 'Courier New', monospace" font-size="8" font-weight="400" fill="#5AE39B" letter-spacing="2">GRAPHIC EQ</text>
<rect x="20" y="331" width="26.74" height="14" fill="none" stroke="#15301F" stroke-width="1"/>
<text x="25" y="340" font-family="Menlo, 'SF Mono', 'Courier New', monospace" font-size="9" font-weight="400" fill="#4C6A5C" letter-spacing="0.5">OFF</text>
<rect x="58" y="331" width="21.16" height="14" fill="#5AE39B"/>
<text x="63" y="340" font-family="Menlo, 'SF Mono', 'Courier New', monospace" font-size="9" font-weight="700" fill="#04120A" letter-spacing="0.5">ON</text>
<rect x="107" y="346.0" width="18" height="4" fill="#15301F"/>
<rect x="107" y="352.3333333333333" width="18" height="4" fill="#15301F"/>
<rect x="107" y="358.6666666666667" width="18" height="4" fill="#15301F"/>
<rect x="107" y="365.0" width="18" height="4" fill="#15301F"/>
<rect x="107" y="371.3333333333333" width="18" height="4" fill="#15301F"/>
<rect x="107" y="377.6666666666667" width="18" height="4" fill="#5AE39B"/>
<rect x="107" y="384.0" width="18" height="4" fill="#5AE39B"/>
<rect x="107" y="390.3333333333333" width="18" height="4" fill="#15301F"/>
<rect x="107" y="396.6666666666667" width="18" height="4" fill="#15301F"/>
<rect x="107" y="403.0" width="18" height="4" fill="#15301F"/>
<rect x="107" y="409.3333333333333" width="18" height="4" fill="#15301F"/>
<rect x="107" y="415.66666666666663" width="18" height="4" fill="#15301F"/>
<rect x="107" y="422.0" width="18" height="4" fill="#15301F"/>
<text x="116" y="434" font-family="Menlo, 'SF Mono', 'Courier New', monospace" font-size="7.5" font-weight="400" fill="#4C6A5C" text-anchor="middle">63</text>
<rect x="161" y="346.0" width="18" height="4" fill="#15301F"/>
<rect x="161" y="352.3333333333333" width="18" height="4" fill="#15301F"/>
<rect x="161" y="358.6666666666667" width="18" height="4" fill="#15301F"/>
<rect x="161" y="365.0" width="18" height="4" fill="#15301F"/>
<rect x="161" y="371.3333333333333" width="18" height="4" fill="#15301F"/>
<rect x="161" y="377.6666666666667" width="18" height="4" fill="#15301F"/>
<rect x="161" y="384.0" width="18" height="4" fill="#5AE39B"/>
<rect x="161" y="390.3333333333333" width="18" height="4" fill="#5AE39B"/>
<rect x="161" y="396.6666666666667" width="18" height="4" fill="#15301F"/>
<rect x="161" y="403.0" width="18" height="4" fill="#15301F"/>
<rect x="161" y="409.3333333333333" width="18" height="4" fill="#15301F"/>
<rect x="161" y="415.66666666666663" width="18" height="4" fill="#15301F"/>
<rect x="161" y="422.0" width="18" height="4" fill="#15301F"/>
<text x="170" y="434" font-family="Menlo, 'SF Mono', 'Courier New', monospace" font-size="7.5" font-weight="400" fill="#4C6A5C" text-anchor="middle">160</text>
<rect x="215" y="346.0" width="18" height="4" fill="#15301F"/>
<rect x="215" y="352.3333333333333" width="18" height="4" fill="#15301F"/>
<rect x="215" y="358.6666666666667" width="18" height="4" fill="#15301F"/>
<rect x="215" y="365.0" width="18" height="4" fill="#15301F"/>
<rect x="215" y="371.3333333333333" width="18" height="4" fill="#15301F"/>
<rect x="215" y="377.6666666666667" width="18" height="4" fill="#15301F"/>
<rect x="215" y="384.0" width="18" height="4" fill="#5AE39B"/>
<rect x="215" y="390.3333333333333" width="18" height="4" fill="#5AE39B"/>
<rect x="215" y="396.6666666666667" width="18" height="4" fill="#5AE39B"/>
<rect x="215" y="403.0" width="18" height="4" fill="#15301F"/>
<rect x="215" y="409.3333333333333" width="18" height="4" fill="#15301F"/>
<rect x="215" y="415.66666666666663" width="18" height="4" fill="#15301F"/>
<rect x="215" y="422.0" width="18" height="4" fill="#15301F"/>
<text x="224" y="434" font-family="Menlo, 'SF Mono', 'Courier New', monospace" font-size="7.5" font-weight="400" fill="#4C6A5C" text-anchor="middle">400</text>
<rect x="269" y="346.0" width="18" height="4" fill="#15301F"/>
<rect x="269" y="352.3333333333333" width="18" height="4" fill="#15301F"/>
<rect x="269" y="358.6666666666667" width="18" height="4" fill="#15301F"/>
<rect x="269" y="365.0" width="18" height="4" fill="#15301F"/>
<rect x="269" y="371.3333333333333" width="18" height="4" fill="#15301F"/>
<rect x="269" y="377.6666666666667" width="18" height="4" fill="#15301F"/>
<rect x="269" y="384.0" width="18" height="4" fill="#5AE39B"/>
<rect x="269" y="390.3333333333333" width="18" height="4" fill="#15301F"/>
<rect x="269" y="396.6666666666667" width="18" height="4" fill="#15301F"/>
<rect x="269" y="403.0" width="18" height="4" fill="#15301F"/>
<rect x="269" y="409.3333333333333" width="18" height="4" fill="#15301F"/>
<rect x="269" y="415.66666666666663" width="18" height="4" fill="#15301F"/>
<rect x="269" y="422.0" width="18" height="4" fill="#15301F"/>
<text x="278" y="434" font-family="Menlo, 'SF Mono', 'Courier New', monospace" font-size="7.5" font-weight="400" fill="#4C6A5C" text-anchor="middle">1.0k</text>
<rect x="323" y="346.0" width="18" height="4" fill="#15301F"/>
<rect x="323" y="352.3333333333333" width="18" height="4" fill="#15301F"/>
<rect x="323" y="358.6666666666667" width="18" height="4" fill="#15301F"/>
<rect x="323" y="365.0" width="18" height="4" fill="#15301F"/>
<rect x="323" y="371.3333333333333" width="18" height="4" fill="#15301F"/>
<rect x="323" y="377.6666666666667" width="18" height="4" fill="#15301F"/>
<rect x="323" y="384.0" width="18" height="4" fill="#5AE39B"/>
<rect x="323" y="390.3333333333333" width="18" height="4" fill="#5AE39B"/>
<rect x="323" y="396.6666666666667" width="18" height="4" fill="#15301F"/>
<rect x="323" y="403.0" width="18" height="4" fill="#15301F"/>
<rect x="323" y="409.3333333333333" width="18" height="4" fill="#15301F"/>
<rect x="323" y="415.66666666666663" width="18" height="4" fill="#15301F"/>
<rect x="323" y="422.0" width="18" height="4" fill="#15301F"/>
<text x="332" y="434" font-family="Menlo, 'SF Mono', 'Courier New', monospace" font-size="7.5" font-weight="400" fill="#4C6A5C" text-anchor="middle">2.5k</text>
<rect x="377" y="346.0" width="18" height="4" fill="#15301F"/>
<rect x="377" y="352.3333333333333" width="18" height="4" fill="#15301F"/>
<rect x="377" y="358.6666666666667" width="18" height="4" fill="#15301F"/>
<rect x="377" y="365.0" width="18" height="4" fill="#5AE39B"/>
<rect x="377" y="371.3333333333333" width="18" height="4" fill="#5AE39B"/>
<rect x="377" y="377.6666666666667" width="18" height="4" fill="#5AE39B"/>
<rect x="377" y="384.0" width="18" height="4" fill="#5AE39B"/>
<rect x="377" y="390.3333333333333" width="18" height="4" fill="#15301F"/>
<rect x="377" y="396.6666666666667" width="18" height="4" fill="#15301F"/>
<rect x="377" y="403.0" width="18" height="4" fill="#15301F"/>
<rect x="377" y="409.3333333333333" width="18" height="4" fill="#15301F"/>
<rect x="377" y="415.66666666666663" width="18" height="4" fill="#15301F"/>
<rect x="377" y="422.0" width="18" height="4" fill="#15301F"/>
<text x="386" y="434" font-family="Menlo, 'SF Mono', 'Courier New', monospace" font-size="7.5" font-weight="400" fill="#4C6A5C" text-anchor="middle">6.3k</text>
<rect x="431" y="346.0" width="18" height="4" fill="#15301F"/>
<rect x="431" y="352.3333333333333" width="18" height="4" fill="#15301F"/>
<rect x="431" y="358.6666666666667" width="18" height="4" fill="#15301F"/>
<rect x="431" y="365.0" width="18" height="4" fill="#15301F"/>
<rect x="431" y="371.3333333333333" width="18" height="4" fill="#15301F"/>
<rect x="431" y="377.6666666666667" width="18" height="4" fill="#15301F"/>
<rect x="431" y="384.0" width="18" height="4" fill="#5AE39B"/>
<rect x="431" y="390.3333333333333" width="18" height="4" fill="#15301F"/>
<rect x="431" y="396.6666666666667" width="18" height="4" fill="#15301F"/>
<rect x="431" y="403.0" width="18" height="4" fill="#15301F"/>
<rect x="431" y="409.3333333333333" width="18" height="4" fill="#15301F"/>
<rect x="431" y="415.66666666666663" width="18" height="4" fill="#15301F"/>
<rect x="431" y="422.0" width="18" height="4" fill="#15301F"/>
<text x="440" y="434" font-family="Menlo, 'SF Mono', 'Courier New', monospace" font-size="7.5" font-weight="400" fill="#4C6A5C" text-anchor="middle">16k</text>
<rect x="520" y="320" width="270" height="118" fill="#070C09" stroke="#15301F" stroke-width="1"/>
<line x1="520" y1="320" x2="527" y2="320" stroke="#5AE39B" stroke-width="1" opacity="0.55"/>
<line x1="520" y1="320" x2="520" y2="327" stroke="#5AE39B" stroke-width="1" opacity="0.55"/>
<line x1="790" y1="320" x2="783" y2="320" stroke="#5AE39B" stroke-width="1" opacity="0.55"/>
<line x1="790" y1="320" x2="790" y2="327" stroke="#5AE39B" stroke-width="1" opacity="0.55"/>
<line x1="520" y1="438" x2="527" y2="438" stroke="#5AE39B" stroke-width="1" opacity="0.55"/>
<line x1="520" y1="438" x2="520" y2="431" stroke="#5AE39B" stroke-width="1" opacity="0.55"/>
<line x1="790" y1="438" x2="783" y2="438" stroke="#5AE39B" stroke-width="1" opacity="0.55"/>
<line x1="790" y1="438" x2="790" y2="431" stroke="#5AE39B" stroke-width="1" opacity="0.55"/>
<rect x="530" y="315" width="48.400000000000006" height="10" fill="#050806"/>
<text x="535" y="323" font-family="Menlo, 'SF Mono', 'Courier New', monospace" font-size="8" font-weight="400" fill="#5AE39B" letter-spacing="2">OUTPUT</text>
<rect x="530" y="331" width="49.06" height="14" fill="none" stroke="#15301F" stroke-width="1"/>
<text x="535" y="340" font-family="Menlo, 'SF Mono', 'Courier New', monospace" font-size="9" font-weight="400" fill="#4C6A5C" letter-spacing="0.5">NO CLIP</text>
<rect x="590" y="331" width="32.32" height="14" fill="#5AE39B"/>
<text x="595" y="340" font-family="Menlo, 'SF Mono', 'Courier New', monospace" font-size="9" font-weight="700" fill="#04120A" letter-spacing="0.5">CLIP</text>
<circle cx="778" cy="336" r="3" fill="#5AE39B"/>
<text x="530" y="370" font-family="Menlo, 'SF Mono', 'Courier New', monospace" font-size="8" font-weight="400" fill="#4C6A5C" letter-spacing="1">THRSH</text>
<rect x="578" y="363" width="132" height="7" fill="none" stroke="#15301F" stroke-width="1"/>
<rect x="578" y="363" width="72.60000000000001" height="7" fill="#5AE39B"/>
<text x="786" y="370" font-family="Menlo, 'SF Mono', 'Courier New', monospace" font-size="8" font-weight="400" fill="#CBE3D6" text-anchor="end">-6.0 dB</text>
<text x="530" y="394" font-family="Menlo, 'SF Mono', 'Courier New', monospace" font-size="8" font-weight="400" fill="#4C6A5C" letter-spacing="1">DRY</text>
<rect x="578" y="387" width="132" height="7" fill="none" stroke="#15301F" stroke-width="1"/>
<rect x="578" y="387" width="112.2" height="7" fill="#5AE39B"/>
<text x="786" y="394" font-family="Menlo, 'SF Mono', 'Courier New', monospace" font-size="8" font-weight="400" fill="#CBE3D6" text-anchor="end">1.0000</text>
<text x="530" y="418" font-family="Menlo, 'SF Mono', 'Courier New', monospace" font-size="8" font-weight="400" fill="#4C6A5C" letter-spacing="1">WET</text>
<rect x="578" y="411" width="132" height="7" fill="none" stroke="#15301F" stroke-width="1"/>
<rect x="578" y="411" width="95.03999999999999" height="7" fill="#5AE39B"/>
<text x="786" y="418" font-family="Menlo, 'SF Mono', 'Courier New', monospace" font-size="8" font-weight="400" fill="#CBE3D6" text-anchor="end">0.7800</text>
<text x="14" y="462" font-family="Menlo, 'SF Mono', 'Courier New', monospace" font-size="8" font-weight="400" fill="#4C6A5C" letter-spacing="2">PRESET</text>
<rect x="64" y="457" width="99.28" height="14" fill="none" stroke="#15301F" stroke-width="1"/>
<text x="69" y="466" font-family="Menlo, 'SF Mono', 'Courier New', monospace" font-size="9" font-weight="400" fill="#4C6A5C" letter-spacing="0.5">TAPE ECHO 01  &lt;></text>
<rect x="212" y="457" width="32.32" height="14" fill="none" stroke="#15301F" stroke-width="1"/>
<text x="217" y="466" font-family="Menlo, 'SF Mono', 'Courier New', monospace" font-size="9" font-weight="400" fill="#4C6A5C" letter-spacing="0.5">SAVE</text>
<text x="786" y="466" font-family="Menlo, 'SF Mono', 'Courier New', monospace" font-size="8" font-weight="400" fill="#4C6A5C" text-anchor="end" opacity="0.6">44100 HZ  32 SMP  0.7 MS  IN/OUT SCARLETT 2i2  v0.1.3</text>
<text x="786" y="484" font-family="Menlo, 'SF Mono', 'Courier New', monospace" font-size="8" font-weight="400" fill="#5AE39B" text-anchor="end" opacity="0.8">READY</text>
</svg>
