<svg xmlns="http://www.w3.org/2000/svg" width="800" height="500" viewBox="0 0 800 500"><title>Varispeed Delay - Monolith</title>
<defs><linearGradient id="bg" x1="0" y1="0" x2="0" y2="1"><stop offset="0%" stop-color="#111216"/><stop offset="100%" stop-color="#08090B"/></linearGradient><radialGradient id="halo" cx="50%" cy="50%" r="50%"><stop offset="0%" stop-color="#E7C68A" stop-opacity="0.16"/><stop offset="100%" stop-color="#E7C68A" stop-opacity="0"/></radialGradient></defs>
<rect x="0" y="0" width="800" height="500" fill="url(#bg)"/>
<ellipse cx="400" cy="150" rx="330" ry="150" fill="url(#halo)"/>
<circle cx="34" cy="32" r="5" fill="#E7C68A"/>
<text x="50" y="36" font-family="'Avenir Next', 'Helvetica Neue', sans-serif" font-size="10.5" font-weight="600" fill="#E9E6DF" letter-spacing="4.2">VARISPEED</text>
<text x="148" y="36" font-family="'Avenir Next', 'Helvetica Neue', sans-serif" font-size="10.5" font-weight="300" fill="#75726B" letter-spacing="4.2">DELAY</text>
<rect x="600" y="20" width="132" height="24" fill="#1B1D22" stroke="#212329" stroke-width="1" rx="12"/>
<text x="614" y="36" font-family="'Avenir Next', 'Helvetica Neue', sans-serif" font-size="9.5" font-weight="400" fill="#E9E6DF">Tape Echo 01</text>
<path d="M 714 30 l 4 5 l 4 -5" fill="none" stroke="#75726B" stroke-width="1.3"/>
<rect x="740" y="20" width="26" height="24" fill="none" stroke="#212329" stroke-width="1" rx="12"/>
<text x="753" y="36" font-family="'Avenir Next', 'Helvetica Neue', sans-serif" font-size="12" font-weight="400" fill="#75726B" text-anchor="middle">+</text>
<rect x="24" y="62" width="752" height="212" fill="#15161A" stroke="#212329" stroke-width="1" rx="14"/>
<text x="172" y="96" font-family="'Avenir Next', 'Helvetica Neue', sans-serif" font-size="8" font-weight="600" fill="#75726B" text-anchor="middle" letter-spacing="3">TIME</text>
<circle cx="172" cy="152" r="38" fill="none" stroke="#1E2027" stroke-width="5"/>
<path d="M 145.13 178.87 A 38.00 38.00 0 0 1 192.36 119.92" fill="none" stroke="#E7C68A" stroke-width="5" stroke-linecap="round"/>
<circle cx="192.4" cy="119.9" r="3.6" fill="#E9E6DF"/>
<text x="163.6" y="158" font-family="'Avenir Next', 'Helvetica Neue', sans-serif" font-size="24" font-weight="200" fill="#E9E6DF" text-anchor="middle" letter-spacing="-0.4">500</text>
<text x="189.39999999999998" y="158" font-family="'Avenir Next', 'Helvetica Neue', sans-serif" font-size="9.5" font-weight="400" fill="#75726B">ms</text>
<text x="172" y="210" font-family="'Avenir Next', 'Helvetica Neue', sans-serif" font-size="7.5" font-weight="400" fill="#75726B" text-anchor="middle" letter-spacing="1.1" opacity="0.75">period 500.0 ms</text>
<line x1="286" y1="86" x2="286" y2="246" stroke="#212329" stroke-width="1"/>
<text x="400" y="96" font-family="'Avenir Next', 'Helvetica Neue', sans-serif" font-size="8" font-weight="600" fill="#75726B" text-anchor="middle" letter-spacing="3">SPEED</text>
<circle cx="400" cy="152" r="38" fill="none" stroke="#1E2027" stroke-width="5"/>
<path d="M 373.13 178.87 A 38.00 38.00 0 0 1 400.00 114.00" fill="none" stroke="#E7C68A" stroke-width="5" stroke-linecap="round"/>
<circle cx="400.0" cy="114.0" r="3.6" fill="#E9E6DF"/>
<text x="394.3" y="158" font-family="'Avenir Next', 'Helvetica Neue', sans-serif" font-size="24" font-weight="200" fill="#E9E6DF" text-anchor="middle" letter-spacing="-0.4">1.000</text>
<text x="433.3" y="158" font-family="'Avenir Next', 'Helvetica Neue', sans-serif" font-size="9.5" font-weight="400" fill="#75726B">x</text>
<text x="400" y="210" font-family="'Avenir Next', 'Helvetica Neue', sans-serif" font-size="7.5" font-weight="400" fill="#75726B" text-anchor="middle" letter-spacing="1.1" opacity="0.75">unity - bypass clean</text>
<line x1="514" y1="86" x2="514" y2="246" stroke="#212329" stroke-width="1"/>
<text x="628" y="96" font-family="'Avenir Next', 'Helvetica Neue', sans-serif" font-size="8" font-weight="600" fill="#75726B" text-anchor="middle" letter-spacing="3">FEEDBACK</text>
<circle cx="628" cy="152" r="38" fill="none" stroke="#1E2027" stroke-width="5"/>
<path d="M 601.13 178.87 A 38.00 38.00 0 0 1 614.01 116.67" fill="none" stroke="#E7C68A" stroke-width="5" stroke-linecap="round"/>
<circle cx="614.0" cy="116.7" r="3.6" fill="#E9E6DF"/>
<text x="628.0" y="158" font-family="'Avenir Next', 'Helvetica Neue', sans-serif" font-size="24" font-weight="200" fill="#E9E6DF" text-anchor="middle" letter-spacing="-0.4">0.62</text>
<text x="628" y="210" font-family="'Avenir Next', 'Helvetica Neue', sans-serif" font-size="7.5" font-weight="400" fill="#75726B" text-anchor="middle" letter-spacing="1.1" opacity="0.75">7 audible repeats</text>
<rect x="46" y="222" width="43.08" height="20" fill="#E7C68A" rx="10.0"/>
<text x="67.53999999999999" y="235.0" font-family="'Avenir Next', 'Helvetica Neue', sans-serif" font-size="8.5" font-weight="600" fill="#12130F" text-anchor="middle" letter-spacing="1.4">FREE</text>
<rect x="96.08" y="222" width="43.08" height="20" fill="#1B1D22" stroke="#212329" stroke-width="1" rx="10.0"/>
<text x="117.62" y="235.0" font-family="'Avenir Next', 'Helvetica Neue', sans-serif" font-size="8.5" font-weight="600" fill="#75726B" text-anchor="middle" letter-spacing="1.4">SYNC</text>
<rect x="146.16" y="222" width="37.81" height="20" fill="#1B1D22" stroke="#212329" stroke-width="1" rx="10.0"/>
<text x="165.065" y="235.0" font-family="'Avenir Next', 'Helvetica Neue', sans-serif" font-size="8.5" font-weight="600" fill="#75726B" text-anchor="middle" letter-spacing="1.4">1/4</text>
<rect x="46" y="246" width="43.08" height="20" fill="#E7C68A" rx="10.0"/>
<text x="67.53999999999999" y="259.0" font-family="'Avenir Next', 'Helvetica Neue', sans-serif" font-size="8.5" font-weight="600" fill="#12130F" text-anchor="middle" letter-spacing="1.4">GRID</text>
<rect x="96.08" y="246" width="43.08" height="20" fill="#1B1D22" stroke="#212329" stroke-width="1" rx="10.0"/>
<text x="117.62" y="259.0" font-family="'Avenir Next', 'Helvetica Neue', sans-serif" font-size="8.5" font-weight="600" fill="#75726B" text-anchor="middle" letter-spacing="1.4">TAPE</text>
<rect x="146.16" y="246" width="43.08" height="20" fill="#E7C68A" rx="10.0"/>
<text x="167.7" y="259.0" font-family="'Avenir Next', 'Helvetica Neue', sans-serif" font-size="8.5" font-weight="600" fill="#12130F" text-anchor="middle" letter-spacing="1.4">BEND</text>
<rect x="302" y="222" width="31.810000000000002" height="20" fill="#1B1D22" stroke="#212329" stroke-width="1" rx="10.0"/>
<text x="317.905" y="235.0" font-family="'Avenir Next', 'Helvetica Neue', sans-serif" font-size="8.5" font-weight="600" fill="#75726B" text-anchor="middle" letter-spacing="1.4">1/4</text>
<rect x="340.81" y="222" width="31.810000000000002" height="20" fill="#1B1D22" stroke="#212329" stroke-width="1" rx="10.0"/>
<text x="356.71500000000003" y="235.0" font-family="'Avenir Next', 'Helvetica Neue', sans-serif" font-size="8.5" font-weight="600" fill="#75726B" text-anchor="middle" letter-spacing="1.4">1/2</text>
<rect x="379.62" y="222" width="31.810000000000002" height="20" fill="#1B1D22" stroke="#212329" stroke-width="1" rx="10.0"/>
<text x="395.525" y="235.0" font-family="'Avenir Next', 'Helvetica Neue', sans-serif" font-size="8.5" font-weight="600" fill="#75726B" text-anchor="middle" letter-spacing="1.4">5DN</text>
<rect x="418.43" y="222" width="31.810000000000002" height="20" fill="#1B1D22" stroke="#212329" stroke-width="1" rx="10.0"/>
<text x="434.33500000000004" y="235.0" font-family="'Avenir Next', 'Helvetica Neue', sans-serif" font-size="8.5" font-weight="600" fill="#75726B" text-anchor="middle" letter-spacing="1.4">4DN</text>
<rect x="457.24" y="222" width="21.27" height="20" fill="#E7C68A" rx="10.0"/>
<text x="467.875" y="235.0" font-family="'Avenir Next', 'Helvetica Neue', sans-serif" font-size="8.5" font-weight="600" fill="#12130F" text-anchor="middle" letter-spacing="1.4">1</text>
<rect x="302" y="246" width="31.810000000000002" height="20" fill="#1B1D22" stroke="#212329" stroke-width="1" rx="10.0"/>
<text x="317.905" y="259.0" font-family="'Avenir Next', 'Helvetica Neue', sans-serif" font-size="8.5" font-weight="600" fill="#75726B" text-anchor="middle" letter-spacing="1.4">4UP</text>
<rect x="340.81" y="246" width="31.810000000000002" height="20" fill="#1B1D22" stroke="#212329" stroke-width="1" rx="10.0"/>
<text x="356.71500000000003" y="259.0" font-family="'Avenir Next', 'Helvetica Neue', sans-serif" font-size="8.5" font-weight="600" fill="#75726B" text-anchor="middle" letter-spacing="1.4">5UP</text>
<rect x="379.62" y="246" width="21.27" height="20" fill="#1B1D22" stroke="#212329" stroke-width="1" rx="10.0"/>
<text x="390.255" y="259.0" font-family="'Avenir Next', 'Helvetica Neue', sans-serif" font-size="8.5" font-weight="600" fill="#75726B" text-anchor="middle" letter-spacing="1.4">2</text>
<rect x="407.89" y="246" width="21.27" height="20" fill="#1B1D22" stroke="#212329" stroke-width="1" rx="10.0"/>
<text x="418.525" y="259.0" font-family="'Avenir Next', 'Helvetica Neue', sans-serif" font-size="8.5" font-weight="600" fill="#75726B" text-anchor="middle" letter-spacing="1.4">4</text>
<rect x="530" y="222" width="37.81" height="20" fill="#E7C68A" rx="10.0"/>
<text x="548.905" y="235.0" font-family="'Avenir Next', 'Helvetica Neue', sans-serif" font-size="8.5" font-weight="600" fill="#12130F" text-anchor="middle" letter-spacing="1.4">RAW</text>
<rect x="574.81" y="222" width="53.620000000000005" height="20" fill="#1B1D22" stroke="#212329" stroke-width="1" rx="10.0"/>
<text x="601.6199999999999" y="235.0" font-family="'Avenir Next', 'Helvetica Neue', sans-serif" font-size="8.5" font-weight="600" fill="#75726B" text-anchor="middle" letter-spacing="1.4">STABLE</text>
<rect x="530" y="246" width="53.620000000000005" height="20" fill="#1B1D22" stroke="#212329" stroke-width="1" rx="10.0"/>
<text x="556.81" y="259.0" font-family="'Avenir Next', 'Helvetica Neue', sans-serif" font-size="8.5" font-weight="600" fill="#75726B" text-anchor="middle" letter-spacing="1.4">REGRID</text>
<rect x="590.62" y="246" width="58.89" height="20" fill="#1B1D22" stroke="#212329" stroke-width="1" rx="10.0"/>
<text x="620.065" y="259.0" font-family="'Avenir Next', 'Helvetica Neue', sans-serif" font-size="8.5" font-weight="600" fill="#75726B" text-anchor="middle" letter-spacing="1.4">NO CLIP</text>
<rect x="24" y="288" width="470" height="118" fill="#15161A" stroke="#212329" stroke-width="1" rx="14"/>
<text x="44" y="312" font-family="'Avenir Next', 'Helvetica Neue', sans-serif" font-size="8" font-weight="600" fill="#75726B" letter-spacing="3">GRAPHIC EQ</text>
<rect x="392" y="300" width="32.54" height="20" fill="#E7C68A" rx="10.0"/>
<text x="408.27" y="313.0" font-family="'Avenir Next', 'Helvetica Neue', sans-serif" font-size="8.5" font-weight="600" fill="#12130F" text-anchor="middle" letter-spacing="1.4">ON</text>
<line x1="48" y1="357.0" x2="470" y2="357.0" stroke="#212329" stroke-width="1"/>
<path d="M 48 357.0 L 62.0 352.5 L 127.7 363.8 L 193.3 364.9 L 259.0 354.8 L 324.7 361.5 L 390.3 343.5 L 456.0 357.0 L 470 357.0 Z" fill="#E7C68A" opacity="0.09"/>
<path d="M 48 357.0 L 62.0 352.5 L 127.7 363.8 L 193.3 364.9 L 259.0 354.8 L 324.7 361.5 L 390.3 343.5 L 456.0 357.0 L 470 357.0" fill="none" stroke="#E7C68A" stroke-width="1.8" stroke-linejoin="round"/>
<circle cx="62.0" cy="352.5" r="3.4" fill="#15161A" stroke="#E7C68A" stroke-width="1.6"/>
<text x="62.0" y="399" font-family="Menlo, 'SF Mono', monospace" font-size="7" font-weight="400" fill="#75726B" text-anchor="middle" opacity="0.7">63</text>
<circle cx="127.7" cy="363.8" r="3.4" fill="#15161A" stroke="#E7C68A" stroke-width="1.6"/>
<text x="127.66666666666667" y="399" font-family="Menlo, 'SF Mono', monospace" font-size="7" font-weight="400" fill="#75726B" text-anchor="middle" opacity="0.7">160</text>
<circle cx="193.3" cy="364.9" r="3.4" fill="#15161A" stroke="#E7C68A" stroke-width="1.6"/>
<text x="193.33333333333334" y="399" font-family="Menlo, 'SF Mono', monospace" font-size="7" font-weight="400" fill="#75726B" text-anchor="middle" opacity="0.7">400</text>
<circle cx="259.0" cy="354.8" r="3.4" fill="#15161A" stroke="#E7C68A" stroke-width="1.6"/>
<text x="259.0" y="399" font-family="Menlo, 'SF Mono', monospace" font-size="7" font-weight="400" fill="#75726B" text-anchor="middle" opacity="0.7">1.0k</text>
<circle cx="324.7" cy="361.5" r="3.4" fill="#15161A" stroke="#E7C68A" stroke-width="1.6"/>
<text x="324.6666666666667" y="399" font-family="Menlo, 'SF Mono', monospace" font-size="7" font-weight="400" fill="#75726B" text-anchor="middle" opacity="0.7">2.5k</text>
<circle cx="390.3" cy="343.5" r="3.4" fill="#15161A" stroke="#E7C68A" stroke-width="1.6"/>
<text x="390.33333333333337" y="399" font-family="Menlo, 'SF Mono', monospace" font-size="7" font-weight="400" fill="#75726B" text-anchor="middle" opacity="0.7">6.3k</text>
<circle cx="456.0" cy="357.0" r="3.4" fill="#15161A" stroke="#E7C68A" stroke-width="1.6"/>
<text x="456.0" y="399" font-family="Menlo, 'SF Mono', monospace" font-size="7" font-weight="400" fill="#75726B" text-anchor="middle" opacity="0.7">16k</text>
<rect x="506" y="288" width="270" height="118" fill="#15161A" stroke="#212329" stroke-width="1" rx="14"/>
<text x="526" y="312" font-family="'Avenir Next', 'Helvetica Neue', sans-serif" font-size="8" font-weight="600" fill="#75726B" letter-spacing="3">OUTPUT</text>
<rect x="700" y="300" width="43.08" height="20" fill="#E7C68A" rx="10.0"/>
<text x="721.54" y="313.0" font-family="'Avenir Next', 'Helvetica Neue', sans-serif" font-size="8.5" font-weight="600" fill="#12130F" text-anchor="middle" letter-spacing="1.4">CLIP</text>
<text x="526" y="343" font-family="'Avenir Next', 'Helvetica Neue', sans-serif" font-size="7.5" font-weight="500" fill="#75726B" letter-spacing="1.6">THRESHOLD</text>
<rect x="602" y="338" width="108" height="4" fill="#1E2027" rx="2"/>
<rect x="602" y="338" width="59.400000000000006" height="4" fill="#E7C68A" rx="2"/>
<text x="756" y="343" font-family="Menlo, 'SF Mono', monospace" font-size="8" font-weight="400" fill="#E9E6DF" text-anchor="end">-6.0 dB</text>
<text x="526" y="366" font-family="'Avenir Next', 'Helvetica Neue', sans-serif" font-size="7.5" font-weight="500" fill="#75726B" letter-spacing="1.6">DRY</text>
<rect x="602" y="361" width="108" height="4" fill="#1E2027" rx="2"/>
<rect x="602" y="361" width="91.8" height="4" fill="#E7C68A" rx="2"/>
<text x="756" y="366" font-family="Menlo, 'SF Mono', monospace" font-size="8" font-weight="400" fill="#E9E6DF" text-anchor="end">1.00</text>
<text x="526" y="389" font-family="'Avenir Next', 'Helvetica Neue', sans-serif" font-size="7.5" font-weight="500" fill="#75726B" letter-spacing="1.6">WET</text>
<rect x="602" y="384" width="108" height="4" fill="#1E2027" rx="2"/>
<rect x="602" y="384" width="77.75999999999999" height="4" fill="#E7C68A" rx="2"/>
<text x="756" y="389" font-family="Menlo, 'SF Mono', monospace" font-size="8" font-weight="400" fill="#E9E6DF" text-anchor="end">0.78</text>
<rect x="24" y="416" width="752" height="54" fill="#15161A" stroke="#212329" stroke-width="1" rx="14"/>
<text x="44" y="447" font-family="'Avenir Next', 'Helvetica Neue', sans-serif" font-size="7.5" font-weight="600" fill="#75726B" letter-spacing="2.4">REPEATS</text>
<rect x="120" y="426.0" width="44" height="30.0" fill="#E7C68A" rx="3" opacity="0.84"/>
<rect x="184" y="431.0" width="44" height="25.0" fill="#E7C68A" rx="3" opacity="0.716"/>
<rect x="248" y="435.25" width="44" height="20.75" fill="#E7C68A" rx="3" opacity="0.6106"/>
<rect x="312" y="438.5" width="44" height="17.5" fill="#E7C68A" rx="3" opacity="0.53"/>
<rect x="376" y="441.25" width="44" height="14.75" fill="#E7C68A" rx="3" opacity="0.4618"/>
<rect x="440" y="443.5" width="44" height="12.5" fill="#E7C68A" rx="3" opacity="0.406"/>
<rect x="504" y="445.5" width="44" height="10.5" fill="#E7C68A" rx="3" opacity="0.3564"/>
<rect x="568" y="447.0" width="44" height="9.0" fill="#E7C68A" rx="3" opacity="0.3192"/>
<rect x="632" y="448.25" width="44" height="7.75" fill="#E7C68A" rx="3" opacity="0.2882"/>
<rect x="696" y="449.25" width="44" height="6.75" fill="#E7C68A" rx="3" opacity="0.2634"/>
<text x="400" y="488" font-family="'Avenir Next', 'Helvetica Neue', sans-serif" font-size="7.5" font-weight="400" fill="#75726B" text-anchor="middle" letter-spacing="1" opacity="0.45">44100 Hz  .  32 smp  .  0.7 ms  .  Scarlett 2i2 USB  .  v0.1.3</text>
</svg>
