<svg xmlns="http://www.w3.org/2000/svg" width="800" height="500" viewBox="0 0 800 500"><title>Varispeed Delay - Noir</title>
<defs><linearGradient id="bg" x1="0" y1="0" x2="0" y2="1"><stop offset="0%" stop-color="#121417"/><stop offset="100%" stop-color="#0A0C0E"/></linearGradient><radialGradient id="kb" cx="38%" cy="30%" r="78%"><stop offset="0%" stop-color="#1C2126"/><stop offset="100%" stop-color="#14181C"/></radialGradient></defs>
<rect x="0.0" y="0.0" width="800.0" height="500.0" fill="url(#bg)"/>
<text x="20.0" y="24.0" font-family="'Helvetica Neue', Helvetica, sans-serif" font-size="10" font-weight="600" fill="#79828D" letter-spacing="3.4">VARISPEED DELAY</text>
<rect x="600.0" y="10.0" width="130.0" height="20.0" fill="#1B1F25" stroke="#2C333C" stroke-width="1" rx="3"/>
<text x="608.0" y="23.5" font-family="'Helvetica Neue', Helvetica, sans-serif" font-size="10" font-weight="400" fill="#ECEFF2">Tape Echo 01</text>
<path d="M 714 18.0 l 4 4 l 4 -4" fill="none" stroke="#79828D" stroke-width="1.3"/>
<rect x="738.0" y="10.0" width="42.0" height="20.0" fill="#1B1F25" stroke="#2C333C" stroke-width="1" rx="3"/>
<text x="759.0" y="23.1" font-family="'Helvetica Neue', Helvetica, sans-serif" font-size="8.5" font-weight="400" fill="#79828D" text-anchor="middle" letter-spacing="0.4">SAVE</text>
<line x1="0.0" y1="38.0" x2="800.0" y2="38.0" stroke="#232830" stroke-width="1" opacity="0.6"/>
<line x1="286.0" y1="44.0" x2="286.0" y2="258.0" stroke="#232830" stroke-width="1" opacity="0.6"/>
<line x1="556.0" y1="44.0" x2="556.0" y2="258.0" stroke="#232830" stroke-width="1" opacity="0.6"/>
<line x1="0.0" y1="262.0" x2="800.0" y2="262.0" stroke="#232830" stroke-width="1" opacity="0.6"/>
<text x="149.0" y="64.0" font-family="'Helvetica Neue', Helvetica, sans-serif" font-size="14" font-weight="400" fill="#8A939E" text-anchor="middle" letter-spacing="2.6">DELAY</text>
<text x="66.0" y="90.0" font-family="'Helvetica Neue', Helvetica, sans-serif" font-size="9.5" font-weight="400" fill="#79828D" text-anchor="middle">Tempo Sync</text>
<rect x="30.0" y="98.0" width="30.0" height="22.0" fill="#1B1F25" stroke="#2C333C" stroke-width="1" rx="3"/>
<text x="45.0" y="113.7" font-family="'Helvetica Neue', Helvetica, sans-serif" font-size="13" font-weight="400" fill="#79828D" text-anchor="middle" letter-spacing="0.4">♪</text>
<rect x="64.0" y="98.0" width="38.0" height="22.0" fill="#1B1F25" stroke="#2C333C" stroke-width="1" rx="3"/>
<text x="83.0" y="112.1" font-family="'Helvetica Neue', Helvetica, sans-serif" font-size="8.5" font-weight="400" fill="#79828D" text-anchor="middle" letter-spacing="0.4">TAP</text>
<text x="83.0" y="134.0" font-family="Menlo, monospace" font-size="7" font-weight="400" fill="#5F6873" text-anchor="middle">tap 4x</text>
<text x="166.0" y="90.0" font-family="'Helvetica Neue', Helvetica, sans-serif" font-size="9.5" font-weight="400" fill="#79828D" text-anchor="middle">Delay Time</text>
<text x="159.6" y="112.0" font-family="'Helvetica Neue', Helvetica, sans-serif" font-size="15" font-weight="300" fill="#ECEFF2" text-anchor="middle">500.0</text>
<text x="186.1" y="112.0" font-family="'Helvetica Neue', Helvetica, sans-serif" font-size="8.5" font-weight="400" fill="#5F6873">ms</text>
<text x="245.0" y="90.0" font-family="'Helvetica Neue', Helvetica, sans-serif" font-size="9.5" font-weight="400" fill="#79828D" text-anchor="middle">Note</text>
<rect x="216.0" y="98.0" width="58.0" height="20.0" fill="#1B1F25" stroke="#2C333C" stroke-width="1" rx="3"/>
<text x="224.0" y="111.5" font-family="'Helvetica Neue', Helvetica, sans-serif" font-size="10" font-weight="400" fill="#5F6873">1/4</text>
<path d="M 258 106.0 l 4 4 l 4 -4" fill="none" stroke="#5F6873" stroke-width="1.3"/>
<path d="M 125.13 208.87 A 38.00 38.00 0 1 1 178.87 208.87" fill="none" stroke="#1E2228" stroke-width="3.5" stroke-linecap="round"/>
<path d="M 125.13 208.87 A 38.00 38.00 0 0 1 172.36 149.92" fill="none" stroke="#5FE08E" stroke-width="3.5" stroke-linecap="round"/>
<circle cx="152" cy="182" r="30" fill="#14181C" stroke="#2A3038" stroke-width="1"/>
<line x1="155.5" y1="176.4" x2="165.8" y2="160.2" stroke="#DCE2E8" stroke-width="2" stroke-linecap="round"/>
<text x="152.0" y="230.0" font-family="Menlo, monospace" font-size="7" font-weight="400" fill="#5F6873" text-anchor="middle">period 500.0 ms</text>
<rect x="24.0" y="242.0" width="40.0" height="16.0" fill="#5FE08E" rx="3"/>
<text x="44.0" y="252.9" font-family="'Helvetica Neue', Helvetica, sans-serif" font-size="8" font-weight="600" fill="#12211A" text-anchor="middle" letter-spacing="0.4">GRID</text>
<rect x="67.0" y="242.0" width="40.0" height="16.0" fill="#1B1F25" stroke="#2C333C" stroke-width="1" rx="3"/>
<text x="87.0" y="252.9" font-family="'Helvetica Neue', Helvetica, sans-serif" font-size="8" font-weight="400" fill="#79828D" text-anchor="middle" letter-spacing="0.4">TAPE</text>
<rect x="156.0" y="242.0" width="51.0" height="16.0" fill="#1B1F25" stroke="#2C333C" stroke-width="1" rx="3"/>
<text x="181.5" y="252.9" font-family="'Helvetica Neue', Helvetica, sans-serif" font-size="8" font-weight="400" fill="#79828D" text-anchor="middle" letter-spacing="0.4">REGRID</text>
<rect x="210.0" y="242.0" width="51.0" height="16.0" fill="#5FE08E" rx="3"/>
<text x="235.5" y="252.9" font-family="'Helvetica Neue', Helvetica, sans-serif" font-size="8" font-weight="600" fill="#12211A" text-anchor="middle" letter-spacing="0.4">BEND</text>
<text x="421.0" y="64.0" font-family="'Helvetica Neue', Helvetica, sans-serif" font-size="14" font-weight="400" fill="#8A939E" text-anchor="middle" letter-spacing="2.6">SPEED</text>
<text x="421.0" y="88.0" font-family="'Helvetica Neue', Helvetica, sans-serif" font-size="9.5" font-weight="400" fill="#79828D" text-anchor="middle">Speed</text>
<rect x="356.0" y="96.0" width="130.0" height="26.0" fill="#1E2228" stroke="#5FE08E" stroke-width="1.2" rx="3"/>
<text x="421.0" y="114.0" font-family="'Helvetica Neue', Helvetica, sans-serif" font-size="15" font-weight="300" fill="#ECEFF2" text-anchor="middle">1.000 x</text>
<line x1="474.0" y1="101.0" x2="474.0" y2="117.0" stroke="#5FE08E" stroke-width="1" opacity="0.8"/>
<text x="421.0" y="134.0" font-family="Menlo, monospace" font-size="7.5" font-weight="400" fill="#5F6873" text-anchor="middle">type  1.5  |  +7s  |  -1.5s</text>
<path d="M 321.13 216.87 A 38.00 38.00 0 1 1 374.87 216.87" fill="none" stroke="#1E2228" stroke-width="3.5" stroke-linecap="round"/>
<path d="M 321.13 216.87 A 38.00 38.00 0 0 1 348.00 152.00" fill="none" stroke="#5FE08E" stroke-width="3.5" stroke-linecap="round"/>
<circle cx="348" cy="190" r="30" fill="#14181C" stroke="#2A3038" stroke-width="1"/>
<line x1="348.0" y1="183.4" x2="348.0" y2="164.2" stroke="#DCE2E8" stroke-width="2" stroke-linecap="round"/>
<text x="348.0" y="234.0" font-family="Menlo, monospace" font-size="7" font-weight="400" fill="#5F6873" text-anchor="middle">0.00 semitones</text>
<rect x="400.0" y="156.0" width="48.0" height="20.0" fill="#1B1F25" stroke="#2C333C" stroke-width="1" rx="3"/>
<text x="424.0" y="169.2" font-family="'Helvetica Neue', Helvetica, sans-serif" font-size="9" font-weight="400" fill="#79828D" text-anchor="middle" letter-spacing="0.4">1/4</text>
<rect x="452.0" y="156.0" width="48.0" height="20.0" fill="#1B1F25" stroke="#2C333C" stroke-width="1" rx="3"/>
<text x="476.0" y="169.2" font-family="'Helvetica Neue', Helvetica, sans-serif" font-size="9" font-weight="400" fill="#79828D" text-anchor="middle" letter-spacing="0.4">1/2</text>
<rect x="504.0" y="156.0" width="48.0" height="20.0" fill="#1B1F25" stroke="#2C333C" stroke-width="1" rx="3"/>
<text x="528.0" y="169.2" font-family="'Helvetica Neue', Helvetica, sans-serif" font-size="9" font-weight="400" fill="#79828D" text-anchor="middle" letter-spacing="0.4">5dn</text>
<rect x="400.0" y="180.0" width="48.0" height="20.0" fill="#1B1F25" stroke="#2C333C" stroke-width="1" rx="3"/>
<text x="424.0" y="193.2" font-family="'Helvetica Neue', Helvetica, sans-serif" font-size="9" font-weight="400" fill="#79828D" text-anchor="middle" letter-spacing="0.4">4dn</text>
<rect x="452.0" y="180.0" width="48.0" height="20.0" fill="#5FE08E" rx="3"/>
<text x="476.0" y="193.2" font-family="'Helvetica Neue', Helvetica, sans-serif" font-size="9" font-weight="600" fill="#12211A" text-anchor="middle" letter-spacing="0.4">1</text>
<rect x="504.0" y="180.0" width="48.0" height="20.0" fill="#1B1F25" stroke="#2C333C" stroke-width="1" rx="3"/>
<text x="528.0" y="193.2" font-family="'Helvetica Neue', Helvetica, sans-serif" font-size="9" font-weight="400" fill="#79828D" text-anchor="middle" letter-spacing="0.4">4up</text>
<rect x="400.0" y="204.0" width="48.0" height="20.0" fill="#1B1F25" stroke="#2C333C" stroke-width="1" rx="3"/>
<text x="424.0" y="217.2" font-family="'Helvetica Neue', Helvetica, sans-serif" font-size="9" font-weight="400" fill="#79828D" text-anchor="middle" letter-spacing="0.4">5up</text>
<rect x="452.0" y="204.0" width="48.0" height="20.0" fill="#1B1F25" stroke="#2C333C" stroke-width="1" rx="3"/>
<text x="476.0" y="217.2" font-family="'Helvetica Neue', Helvetica, sans-serif" font-size="9" font-weight="400" fill="#79828D" text-anchor="middle" letter-spacing="0.4">2</text>
<rect x="504.0" y="204.0" width="48.0" height="20.0" fill="#1B1F25" stroke="#2C333C" stroke-width="1" rx="3"/>
<text x="528.0" y="217.2" font-family="'Helvetica Neue', Helvetica, sans-serif" font-size="9" font-weight="400" fill="#79828D" text-anchor="middle" letter-spacing="0.4">4</text>
<text x="678.0" y="64.0" font-family="'Helvetica Neue', Helvetica, sans-serif" font-size="14" font-weight="400" fill="#8A939E" text-anchor="middle" letter-spacing="2.6">FEEDBACK</text>
<text x="678.0" y="92.0" font-family="'Helvetica Neue', Helvetica, sans-serif" font-size="9.5" font-weight="400" fill="#79828D" text-anchor="middle">Feedback</text>
<text x="678.0" y="112.0" font-family="'Helvetica Neue', Helvetica, sans-serif" font-size="15" font-weight="300" fill="#F0705A" text-anchor="middle">0.62</text>
<path d="M 651.13 202.87 A 38.00 38.00 0 1 1 704.87 202.87" fill="none" stroke="#1E2228" stroke-width="3.5" stroke-linecap="round"/>
<path d="M 678.24 133.50 A 42.50 42.50 0 0 1 708.05 206.05" fill="none" stroke="#F0705A" stroke-width="2" opacity="0.55"/>
<path d="M 651.13 202.87 A 38.00 38.00 0 0 1 678.21 138.00" fill="none" stroke="#5FE08E" stroke-width="3.5"/>
<path d="M 678.21 138.00 A 38.00 38.00 0 0 1 698.36 143.92" fill="none" stroke="#F0705A" stroke-width="3.5" stroke-linecap="round"/>
<circle cx="678" cy="176" r="30" fill="#14181C" stroke="#2A3038" stroke-width="1"/>
<line x1="681.5" y1="170.4" x2="691.8" y2="154.2" stroke="#DCE2E8" stroke-width="2" stroke-linecap="round"/>
<text x="678.0" y="216.0" font-family="Menlo, monospace" font-size="9.5" font-weight="700" fill="#F0705A" text-anchor="middle" letter-spacing="0.6">LOOP GAIN 1.24x</text>
<text x="678.0" y="230.0" font-family="Menlo, monospace" font-size="7" font-weight="400" fill="#5F6873" text-anchor="middle">EQ +6.0 dB at 6.3k - safe below 0.50</text>
<rect x="618.0" y="244.0" width="56.0" height="16.0" fill="#5FE08E" rx="3"/>
<text x="646.0" y="254.9" font-family="'Helvetica Neue', Helvetica, sans-serif" font-size="8" font-weight="600" fill="#12211A" text-anchor="middle" letter-spacing="0.4">RAW</text>
<rect x="677.0" y="244.0" width="56.0" height="16.0" fill="#1B1F25" stroke="#2C333C" stroke-width="1" rx="3"/>
<text x="705.0" y="254.9" font-family="'Helvetica Neue', Helvetica, sans-serif" font-size="8" font-weight="400" fill="#79828D" text-anchor="middle" letter-spacing="0.4">STABLE</text>
<line x1="392.0" y1="268.0" x2="392.0" y2="462.0" stroke="#232830" stroke-width="1" opacity="0.6"/>
<text x="24.0" y="288.0" font-family="'Helvetica Neue', Helvetica, sans-serif" font-size="10" font-weight="400" fill="#8A939E" letter-spacing="2.4">GRAPHIC EQ</text>
<rect x="300.0" y="276.0" width="38.0" height="16.0" fill="#1B1F25" stroke="#2C333C" stroke-width="1" rx="3"/>
<text x="319.0" y="286.9" font-family="'Helvetica Neue', Helvetica, sans-serif" font-size="8" font-weight="400" fill="#79828D" text-anchor="middle" letter-spacing="0.4">OFF</text>
<rect x="341.0" y="276.0" width="38.0" height="16.0" fill="#5FE08E" rx="3"/>
<text x="360.0" y="286.9" font-family="'Helvetica Neue', Helvetica, sans-serif" font-size="8" font-weight="600" fill="#12211A" text-anchor="middle" letter-spacing="0.4">ON</text>
<line x1="40.0" y1="360.0" x2="372.0" y2="360.0" stroke="#5F6873" stroke-width="1" opacity="0.22"/>
<text x="52.0" y="310.0" font-family="Menlo, monospace" font-size="8.5" font-weight="400" fill="#ECEFF2" text-anchor="middle">+2.0</text>
<rect x="50.5" y="318.0" width="3.0" height="84.0" fill="#1E2228" rx="1.5"/>
<rect x="50.5" y="353.0" width="3.0" height="7.0" fill="#5FE08E" rx="1.5"/>
<rect x="43.0" y="349.5" width="18.0" height="7.0" fill="#14181C" stroke="#2A3038" stroke-width="1" rx="2"/>
<line x1="47.0" y1="353.0" x2="57.0" y2="353.0" stroke="#DCE2E8" stroke-width="1" opacity="0.7"/>
<text x="52.0" y="418.0" font-family="Menlo, monospace" font-size="7.5" font-weight="400" fill="#5F6873" text-anchor="middle">63</text>
<text x="100.0" y="310.0" font-family="Menlo, monospace" font-size="8.5" font-weight="400" fill="#ECEFF2" text-anchor="middle">-3.0</text>
<rect x="98.5" y="318.0" width="3.0" height="84.0" fill="#1E2228" rx="1.5"/>
<rect x="98.5" y="360.0" width="3.0" height="10.5" fill="#5FE08E" rx="1.5"/>
<rect x="91.0" y="367.0" width="18.0" height="7.0" fill="#14181C" stroke="#2A3038" stroke-width="1" rx="2"/>
<line x1="95.0" y1="370.5" x2="105.0" y2="370.5" stroke="#DCE2E8" stroke-width="1" opacity="0.7"/>
<text x="100.0" y="418.0" font-family="Menlo, monospace" font-size="7.5" font-weight="400" fill="#5F6873" text-anchor="middle">160</text>
<text x="148.0" y="310.0" font-family="Menlo, monospace" font-size="8.5" font-weight="400" fill="#ECEFF2" text-anchor="middle">-3.5</text>
<rect x="146.5" y="318.0" width="3.0" height="84.0" fill="#1E2228" rx="1.5"/>
<rect x="146.5" y="360.0" width="3.0" height="12.2" fill="#5FE08E" rx="1.5"/>
<rect x="139.0" y="368.8" width="18.0" height="7.0" fill="#14181C" stroke="#2A3038" stroke-width="1" rx="2"/>
<line x1="143.0" y1="372.2" x2="153.0" y2="372.2" stroke="#DCE2E8" stroke-width="1" opacity="0.7"/>
<text x="148.0" y="418.0" font-family="Menlo, monospace" font-size="7.5" font-weight="400" fill="#5F6873" text-anchor="middle">400</text>
<text x="196.0" y="310.0" font-family="Menlo, monospace" font-size="8.5" font-weight="400" fill="#ECEFF2" text-anchor="middle">+1.0</text>
<rect x="194.5" y="318.0" width="3.0" height="84.0" fill="#1E2228" rx="1.5"/>
<rect x="194.5" y="356.5" width="3.0" height="3.5" fill="#5FE08E" rx="1.5"/>
<rect x="187.0" y="353.0" width="18.0" height="7.0" fill="#14181C" stroke="#2A3038" stroke-width="1" rx="2"/>
<line x1="191.0" y1="356.5" x2="201.0" y2="356.5" stroke="#DCE2E8" stroke-width="1" opacity="0.7"/>
<text x="196.0" y="418.0" font-family="Menlo, monospace" font-size="7.5" font-weight="400" fill="#5F6873" text-anchor="middle">1.0k</text>
<text x="244.0" y="310.0" font-family="Menlo, monospace" font-size="8.5" font-weight="400" fill="#ECEFF2" text-anchor="middle">-2.0</text>
<rect x="242.5" y="318.0" width="3.0" height="84.0" fill="#1E2228" rx="1.5"/>
<rect x="242.5" y="360.0" width="3.0" height="7.0" fill="#5FE08E" rx="1.5"/>
<rect x="235.0" y="363.5" width="18.0" height="7.0" fill="#14181C" stroke="#2A3038" stroke-width="1" rx="2"/>
<line x1="239.0" y1="367.0" x2="249.0" y2="367.0" stroke="#DCE2E8" stroke-width="1" opacity="0.7"/>
<text x="244.0" y="418.0" font-family="Menlo, monospace" font-size="7.5" font-weight="400" fill="#5F6873" text-anchor="middle">2.5k</text>
<text x="292.0" y="310.0" font-family="Menlo, monospace" font-size="8.5" font-weight="400" fill="#ECEFF2" text-anchor="middle">+6.0</text>
<rect x="290.5" y="318.0" width="3.0" height="84.0" fill="#1E2228" rx="1.5"/>
<rect x="290.5" y="339.0" width="3.0" height="21.0" fill="#5FE08E" rx="1.5"/>
<rect x="283.0" y="335.5" width="18.0" height="7.0" fill="#14181C" stroke="#2A3038" stroke-width="1" rx="2"/>
<line x1="287.0" y1="339.0" x2="297.0" y2="339.0" stroke="#DCE2E8" stroke-width="1" opacity="0.7"/>
<text x="292.0" y="418.0" font-family="Menlo, monospace" font-size="7.5" font-weight="400" fill="#5F6873" text-anchor="middle">6.3k</text>
<text x="340.0" y="310.0" font-family="Menlo, monospace" font-size="8.5" font-weight="400" fill="#5F6873" text-anchor="middle">+0.0</text>
<rect x="338.5" y="318.0" width="3.0" height="84.0" fill="#1E2228" rx="1.5"/>
<rect x="338.5" y="360.0" width="3.0" height="1.5" fill="#5FE08E" rx="1.5"/>
<rect x="331.0" y="356.5" width="18.0" height="7.0" fill="#14181C" stroke="#2A3038" stroke-width="1" rx="2"/>
<line x1="335.0" y1="360.0" x2="345.0" y2="360.0" stroke="#DCE2E8" stroke-width="1" opacity="0.7"/>
<text x="340.0" y="418.0" font-family="Menlo, monospace" font-size="7.5" font-weight="400" fill="#5F6873" text-anchor="middle">16k</text>
<text x="24.0" y="440.0" font-family="Menlo, monospace" font-size="7.5" font-weight="400" fill="#5F6873" opacity="0.7">dB</text>
<text x="360.0" y="440.0" font-family="Menlo, monospace" font-size="7.5" font-weight="400" fill="#5F6873" text-anchor="end" opacity="0.7">Hz</text>
<text x="596.0" y="288.0" font-family="'Helvetica Neue', Helvetica, sans-serif" font-size="14" font-weight="400" fill="#8A939E" text-anchor="middle" letter-spacing="2.6">OUTPUT</text>
<text x="462.0" y="314.0" font-family="'Helvetica Neue', Helvetica, sans-serif" font-size="9.5" font-weight="400" fill="#79828D" text-anchor="middle">Clip Threshold</text>
<text x="455.6" y="334.0" font-family="'Helvetica Neue', Helvetica, sans-serif" font-size="14" font-weight="300" fill="#ECEFF2" text-anchor="middle">-6.0</text>
<text x="476.4" y="334.0" font-family="'Helvetica Neue', Helvetica, sans-serif" font-size="8.5" font-weight="400" fill="#5F6873">dB</text>
<path d="M 438.67 403.33 A 33.00 33.00 0 1 1 485.33 403.33" fill="none" stroke="#1E2228" stroke-width="3.5" stroke-linecap="round"/>
<path d="M 438.67 403.33 A 33.00 33.00 0 0 1 469.70 347.91" fill="none" stroke="#5FE08E" stroke-width="3.5" stroke-linecap="round"/>
<circle cx="462" cy="380" r="25" fill="#14181C" stroke="#2A3038" stroke-width="1"/>
<line x1="463.3" y1="374.7" x2="467.0" y2="359.1" stroke="#DCE2E8" stroke-width="2" stroke-linecap="round"/>
<circle cx="504" cy="316" r="3.5" fill="#5FE08E"/>
<rect x="424.0" y="424.0" width="48.0" height="16.0" fill="#1B1F25" stroke="#2C333C" stroke-width="1" rx="3"/>
<text x="448.0" y="434.9" font-family="'Helvetica Neue', Helvetica, sans-serif" font-size="8" font-weight="400" fill="#79828D" text-anchor="middle" letter-spacing="0.4">NO CLIP</text>
<rect x="475.0" y="424.0" width="48.0" height="16.0" fill="#5FE08E" rx="3"/>
<text x="499.0" y="434.9" font-family="'Helvetica Neue', Helvetica, sans-serif" font-size="8" font-weight="600" fill="#12211A" text-anchor="middle" letter-spacing="0.4">CLIP</text>
<text x="640.0" y="314.0" font-family="'Helvetica Neue', Helvetica, sans-serif" font-size="9.5" font-weight="400" fill="#79828D" text-anchor="middle">Dry</text>
<text x="640.0" y="334.0" font-family="'Helvetica Neue', Helvetica, sans-serif" font-size="14" font-weight="300" fill="#ECEFF2" text-anchor="middle">1.00</text>
<rect x="638.5" y="348.0" width="3.0" height="76.0" fill="#1E2228" rx="1.5"/>
<rect x="638.5" y="359.4" width="3.0" height="64.6" fill="#5FE08E" rx="1.5"/>
<rect x="631.0" y="355.9" width="18.0" height="7.0" fill="#14181C" stroke="#2A3038" stroke-width="1" rx="2"/>
<line x1="635.0" y1="359.4" x2="645.0" y2="359.4" stroke="#DCE2E8" stroke-width="1" opacity="0.7"/>
<text x="716.0" y="314.0" font-family="'Helvetica Neue', Helvetica, sans-serif" font-size="9.5" font-weight="400" fill="#79828D" text-anchor="middle">Wet</text>
<text x="716.0" y="334.0" font-family="'Helvetica Neue', Helvetica, sans-serif" font-size="14" font-weight="300" fill="#ECEFF2" text-anchor="middle">0.78</text>
<rect x="714.5" y="348.0" width="3.0" height="76.0" fill="#1E2228" rx="1.5"/>
<rect x="714.5" y="369.3" width="3.0" height="54.7" fill="#5FE08E" rx="1.5"/>
<rect x="707.0" y="365.8" width="18.0" height="7.0" fill="#14181C" stroke="#2A3038" stroke-width="1" rx="2"/>
<line x1="711.0" y1="369.3" x2="721.0" y2="369.3" stroke="#DCE2E8" stroke-width="1" opacity="0.7"/>
<line x1="0.0" y1="468.0" x2="800.0" y2="468.0" stroke="#232830" stroke-width="1" opacity="0.6"/>
<text x="20.0" y="488.0" font-family="Menlo, monospace" font-size="8" font-weight="400" fill="#5F6873" opacity="0.8">44100 Hz  |  32 smp  |  0.7 ms  |  Scarlett 2i2 USB  |  v0.1.3</text>
<text x="430.0" y="488.0" font-family="Menlo, monospace" font-size="8" font-weight="400" fill="#5F6873" opacity="0.65">shift-drag fine  .  double-click reset  .  type values</text>
<rect x="690.0" y="476.0" width="58.0" height="18.0" fill="#1B1F25" stroke="#2C333C" stroke-width="1" rx="3"/>
<text x="698.0" y="488.5" font-family="'Helvetica Neue', Helvetica, sans-serif" font-size="10" font-weight="400" fill="#ECEFF2">100%</text>
<path d="M 732 483.0 l 4 4 l 4 -4" fill="none" stroke="#79828D" stroke-width="1.3"/>
<text x="760.0" y="488.0" font-family="Menlo, monospace" font-size="9" font-weight="400" fill="#5F6873" text-anchor="middle">?</text>
<line x1="792.0" y1="496.0" x2="796.0" y2="492.0" stroke="#5F6873" stroke-width="1.2" opacity="0.5"/>
<line x1="788.0" y1="496.0" x2="796.0" y2="488.0" stroke="#5F6873" stroke-width="1.2" opacity="0.5"/>
<line x1="784.0" y1="496.0" x2="796.0" y2="484.0" stroke="#5F6873" stroke-width="1.2" opacity="0.5"/>
</svg>
